<?xml version="1.0" encoding="UTF-8"?>
<svg id="Capa_1" xmlns="http://www.w3.org/2000/svg" version="1.1" viewBox="0 0 1080 1080">
  <!-- Generator: Adobe Illustrator 29.8.1, SVG Export Plug-In . SVG Version: 2.1.1 Build 2)  -->
  <defs>
    <style>
      .st0 {
        fill: #fff;
      }

      .st1 {
        opacity: .5;
      }
    </style>
  </defs>
  <g class="st1">
    <path class="st0" d="M141.29,858.45c-1.43,0-2.59,1.16-2.59,2.59v5.18c0,1.43,1.16,2.59,2.59,2.59s2.59-1.16,2.59-2.59v-5.18c0-1.43-1.16-2.59-2.59-2.59Z"/>
    <path class="st0" d="M1055.13,621.18c.03-1.17.09-2.33.09-3.51,0-102.14-77.82-186.08-177.41-195.81-37.31-86.96-130.88-139.8-227.88-121.96-26.41,4.86-50.68,14.57-72.16,27.96-34.29-69.13-105.55-116.67-187.94-116.67-115.58,0-209.31,93.52-209.7,209.01-93.63,28.66-160.54,104.5-160.54,193.58,0,21.33,3.84,41.91,10.96,61.25,6.79,80.97,74.61,144.58,157.33,144.58h714.57c87.22,0,157.93-70.71,157.93-157.93,0-14-1.84-27.57-5.27-40.5Z"/>
  </g>
</svg>