<?xml version="1.0" standalone="no"?>
<!DOCTYPE svg PUBLIC "-//W3C//DTD SVG 1.1//EN" "http://www.w3.org/Graphics/SVG/1.1/DTD/svg11.dtd" >
<svg xmlns="http://www.w3.org/2000/svg" xmlns:xlink="http://www.w3.org/1999/xlink" version="1.1">
<metadata>
Created by FontForge 20201107 at Fri May  5 14:18:52 2017
 By 
Copyright (c) 2011, Dario Manuel Muhafara (http://www.tipo.net.ar), with Reserved Font Name "Overlock".
</metadata>
<defs>
<font id="Overlock-Black" horiz-adv-x="574" >
  <font-face 
    font-family="Overlock Black"
    font-weight="900"
    font-stretch="normal"
    units-per-em="1000"
    panose-1="2 0 5 3 3 0 0 2 0 4"
    ascent="800"
    descent="-200"
    x-height="471"
    cap-height="666"
    bbox="-130 -253 1275 966"
    underline-thickness="20"
    underline-position="-133"
    unicode-range="U+0020-FB06"
  />
<missing-glyph horiz-adv-x="149" 
 />
    <glyph glyph-name=".notdef" horiz-adv-x="149" 
 />
    <glyph glyph-name=".null" horiz-adv-x="0" 
 />
    <glyph glyph-name="nonmarkingreturn" horiz-adv-x="333" 
 />
    <glyph glyph-name="space" unicode=" " horiz-adv-x="215" 
 />
    <glyph glyph-name="exclam" unicode="!" horiz-adv-x="315" 
d="M165 -10q-38 0 -64 25t-26 64q0 37 27.5 63t64.5 26q36 0 62.5 -26t26.5 -63q0 -38 -27.5 -63.5t-63.5 -25.5zM244 619q0 -31 -8 -106.5t-8 -117.5q0 -112 13 -147q-38 -19 -74 -19q-35 0 -58.5 16t-23.5 46q0 8 0.5 37t0.5 50q0 232 -21 305q46 11 94 11q85 0 85 -75z
" />
    <glyph glyph-name="quotedbl" unicode="&#x22;" horiz-adv-x="433" 
d="M335 737q70 0 70 -55q0 -62 -21 -178q-9 -49 -66 -49q-27 0 -51 8q3 19 3 42q0 47 -7 104t-7 73q0 27 16.5 41t62.5 14zM109 737q70 0 70 -55q0 -62 -21 -178q-9 -49 -66 -49q-27 0 -51 8q3 20 3 42q0 47 -7 104t-7 73q0 27 16.5 41t62.5 14z" />
    <glyph glyph-name="numbersign" unicode="#" 
d="M222 266q79 0 116 2q3 15 15 120q-32 2 -73 2h-39q-14 -84 -19 -124zM418 641q20 0 34 -11t14 -34q0 -14 -25 -133q14 1 140 9q0 -19 -1 -28.5t-4.5 -24.5t-10.5 -22t-20 -13t-32 -6q-4 0 -25.5 3t-59.5 4q-9 -43 -19 -117q35 1 145 10q0 -19 -1 -28.5t-4.5 -24.5
t-10.5 -22.5t-20 -13t-32 -5.5q-6 0 -28 2.5t-59 4.5q-3 -48 -3 -106q0 -46 1 -61q-20 -11 -50 -11q-23 0 -33 11t-10 36q0 13 11 69t11 65q-39 1 -72 1h-41q-9 -87 -9 -123q0 -31 1 -48q-20 -11 -45 -11q-23 0 -33 11t-10 36q0 5 22 134q-74 -3 -142 -26q-4 15 -4 44t20 43
t70 14q7 0 29.5 -0.5t39.5 -0.5l14 120q-45 -2 -68 -6.5t-74 -19.5q-4 15 -4 44q0 28 20.5 42.5t69.5 14.5l65 -1q16 131 18 175q20 4 38 4q20 0 34 -11t14 -34q0 -8 -26 -136h109q15 129 18 177q20 4 38 4z" />
    <glyph glyph-name="dollar" unicode="$" 
d="M319 -75l-22 -3q-40 0 -43 39v30q-82 3 -139.5 29.5t-57.5 61.5q0 21 13.5 37t29 24t46.5 21q12 -32 40.5 -55t67.5 -28v193q-26 8 -38 12t-35.5 14.5t-35.5 20t-29 26.5t-25.5 36.5t-15 47t-6.5 61.5q0 76 52.5 120.5t131.5 55.5q-1 25 -5 66q17 5 25 5q38 0 38 -39v-29
q70 -3 126 -27t56 -64q0 -63 -95 -80q-11 29 -35 49.5t-52 26.5v-181q37 -11 54 -17.5t49.5 -23.5t49 -36t30 -52t13.5 -75q0 -79 -49 -134t-145 -65q0 -2 6 -67zM370 174q0 53 -58 80v-168q58 21 58 88zM205 499q0 -51 49 -79v151q-22 -9 -35.5 -28.5t-13.5 -43.5z" />
    <glyph glyph-name="percent" unicode="%" horiz-adv-x="883" 
d="M680 -10q-79 0 -125.5 45t-46.5 121q0 77 46.5 121.5t125.5 44.5q78 0 124 -45t46 -121t-46 -121t-124 -45zM732 149q0 39 -13.5 69.5t-38.5 30.5q-24 0 -39.5 -23t-15.5 -58q0 -41 14 -72.5t40 -31.5q24 0 38.5 24t14.5 61zM218 44l233 369q103 162 171 286
q25 -1 45 -14t20 -32q0 -15 -10 -30l-233 -370q-91 -144 -172 -286q-62 13 -66 43q0 17 12 34zM204 333q-79 0 -125.5 45t-46.5 121q0 77 46.5 121.5t125.5 44.5q78 0 124 -45t46 -121t-46 -121t-124 -45zM256 492q0 39 -13.5 69.5t-38.5 30.5q-24 0 -39.5 -23t-15.5 -58
q0 -41 14 -72.5t40 -31.5q24 0 38.5 24t14.5 61z" />
    <glyph glyph-name="ampersand" unicode="&#x26;" horiz-adv-x="673" 
d="M201 245q-19 -29 -19 -62q0 -48 35 -74t84 -26q26 0 48 7q-78 64 -148 155zM273 581q-29 0 -46 -20.5t-17 -54.5q0 -48 34 -103q76 55 76 118q0 26 -14 43t-33 17zM32 171q0 98 104 171q-64 92 -64 173q0 72 55 115t159 43q85 0 133.5 -37.5t48.5 -89.5q0 -32 -12 -61
t-27.5 -48.5t-43.5 -42t-45 -33t-47 -28.5q63 -80 131 -136q5 30 5 48q0 30 -14 74q32 19 67 19q92 0 92 -67q0 -41 -10 -70.5t-36 -73.5q62 -31 120 -31q6 -26 6 -40q0 -66 -70 -66q-72 0 -154 45q-65 -44 -157 -44q-97 0 -169 48.5t-72 131.5z" />
    <glyph glyph-name="quotesingle" unicode="'" horiz-adv-x="279" 
d="M129 737q70 0 70 -55q0 -62 -21 -178q-9 -49 -66 -49q-27 0 -51 8q3 20 3 42q0 47 -7 104t-7 73q0 27 16.5 41t62.5 14z" />
    <glyph glyph-name="parenleft" unicode="(" horiz-adv-x="337" 
d="M58 262q0 87 24.5 176.5t59 151.5t70 101.5t58.5 39.5q20 0 39 -23q-49 -69 -81 -190.5t-32 -255.5q0 -123 31 -247.5t82 -194.5q-19 -23 -39 -23q-24 0 -60 40.5t-70 103t-58 150.5t-24 171z" />
    <glyph glyph-name="parenright" unicode=")" horiz-adv-x="355" 
d="M251 262q0 -83 -24 -171t-58 -150.5t-70 -103t-60 -40.5q-20 0 -39 23q51 70 82 194.5t31 247.5q0 134 -32 255.5t-81 190.5q19 23 39 23q23 0 58.5 -39.5t70 -101.5t59 -151.5t24.5 -176.5z" />
    <glyph glyph-name="asterisk" unicode="*" horiz-adv-x="405" 
d="M258 697q0 -36 -10 -76q71 52 84 65q44 -38 44 -66q0 -42 -119 -72q70 -65 105 -91q-11 -20 -30 -34t-41 -14q-24 0 -43.5 22.5t-45.5 71.5q-37 -66 -65 -111q-29 10 -51.5 27.5t-22.5 36.5q0 34 85 96q-75 27 -125 41q4 27 21 49t42 22q39 0 77 -40l-6 48t-10 62
q31 9 49 9q62 0 62 -46z" />
    <glyph glyph-name="plus" unicode="+" 
d="M328 292q105 0 208 11q4 -12 4 -42q0 -25 -14.5 -42.5t-37.5 -17.5q-24 0 -75 5t-86 5q0 -79 11 -202q-21 -4 -43 -4q-24 0 -42 13t-18 38q0 8 4 49.5t6 106.5q-46 0 -206 -11q-4 21 -4 42q0 23 12.5 41.5t39.5 18.5q8 0 53.5 -4t106.5 -6q0 103 -12 202q13 4 43 4
q25 0 42.5 -14t17.5 -37q0 -24 -5 -72t-5 -84z" />
    <glyph glyph-name="comma" unicode="," horiz-adv-x="258" 
d="M37 57q0 35 24.5 57t64.5 22q45 0 69.5 -32t24.5 -81q0 -70 -46 -128t-119 -58q-37 0 -37 39q0 5 2 21h5q27 0 47 21.5t20 45.5q0 41 -45 48q-10 21 -10 45z" />
    <glyph glyph-name="hyphen" unicode="-" horiz-adv-x="283" 
d="M278 269q0 -30 -20.5 -48t-54.5 -18q-11 0 -40 3.5t-45 3.5q-38 0 -86 -16q-7 35 -7 57q0 27 18 46.5t57 19.5q6 0 35 -3t46 -3h8q43 0 78 15q11 -30 11 -57z" />
    <glyph glyph-name="period" unicode="." horiz-adv-x="254" 
d="M123 -10q-38 0 -64.5 26.5t-26.5 67.5q0 39 28 66t65 27t63.5 -27t26.5 -66q0 -40 -28 -67t-64 -27z" />
    <glyph glyph-name="slash" unicode="/" horiz-adv-x="249" 
d="M151 218q-33 -223 -42 -331q-22 -5 -35 -5q-47 0 -47 40q0 6 13.5 87.5t32.5 200.5t29 195q36 258 42 331l30 5q52 0 52 -39z" />
    <glyph glyph-name="zero" unicode="0" 
d="M286 -10q-120 0 -190.5 92.5t-70.5 248.5q0 157 70.5 249.5t190.5 92.5t191.5 -92.5t71.5 -249.5q0 -155 -71.5 -248t-191.5 -93zM392 314q0 100 -28 180t-78 80q-47 0 -77 -61.5t-30 -150.5q0 -108 28 -191t78 -83q48 0 77.5 65t29.5 161z" />
    <glyph glyph-name="one" unicode="1" 
d="M371 94q64 0 99 4q9 -20 9 -44q0 -56 -49 -56q-9 0 -75 1t-123 1q-94 0 -134 -1q-10 28 -10 49q0 49 68 49h58q0 16 1 103.5t1 153.5q0 115 -3 211q-108 -11 -125 -14q-4 26 -4 39q0 62 51 68q118 15 176 15q24 0 42.5 -12t18.5 -38q0 -8 -2 -55t-4 -118.5t-2 -138.5v-52
q0 -110 7 -165z" />
    <glyph glyph-name="two" unicode="2" 
d="M129 482q-74 21 -74 79q0 40 76 76t162 36q90 0 152 -49.5t62 -140.5q0 -31 -11 -64.5t-24.5 -60t-42.5 -60.5t-46 -52.5t-55.5 -52t-51.5 -44t-51 -41.5q2 -1 22 -1q122 0 175 4t106 22q13 -35 13 -59q0 -44 -26 -59q-31 -17 -188 -17q-45 0 -124 1t-111 1q-53 0 -53 60
q0 17 6 45q193 169 251 235t58 131q0 52 -22 77t-58 25q-39 0 -80 -26t-65 -65z" />
    <glyph glyph-name="three" unicode="3" 
d="M364 364q80 -32 109 -73.5t29 -100.5q0 -81 -73 -140.5t-200 -59.5q-24 0 -47.5 2t-55.5 8.5t-52 22.5t-20 40q0 23 18 43.5t45 28.5q12 -21 44 -34.5t69 -13.5q46 0 80.5 26.5t34.5 72.5q0 54 -35.5 87t-94.5 33q-18 0 -27.5 1t-21.5 6t-17 17t-5 31t3 33q88 0 132.5 34
t44.5 80q0 33 -19 50t-49 17q-35 0 -68 -22t-44 -57q-37 5 -57 24.5t-20 42.5q0 41 60 75.5t150 34.5q96 0 150 -45.5t54 -108.5q0 -107 -117 -155z" />
    <glyph glyph-name="four" unicode="4" 
d="M157 292q22 -1 76 -1q39 0 74 3q0 92 3 197q-8 -10 -40.5 -49.5t-60 -75.5t-52.5 -74zM282 642q34 31 110 31q47 0 73 -7q0 -3 -2.5 -42.5t-4.5 -110t-2 -148.5v-69q73 6 97 17q10 -28 10 -59q0 -43 -20 -52q-26 -12 -87 -13q0 -108 24 -186q-37 -13 -85 -13
q-54 0 -72 20t-18 69q0 5 2 111q-175 0 -247 6q-28 2 -37 16.5t-9 43.5q0 8 2 28q41 70 130.5 191t135.5 167z" />
    <glyph glyph-name="five" unicode="5" 
d="M276 447q106 0 165 -63.5t59 -159.5q0 -62 -25 -109.5t-67 -74t-88.5 -39t-97.5 -12.5q-72 0 -121.5 19t-49.5 51q0 21 18.5 40.5t46.5 26.5q29 -42 102 -42q57 0 91 36.5t34 87.5q0 59 -46 102.5t-134 43.5q-27 0 -67 -7q-10 15 -10 67q0 15 13 250q36 -2 245 -2
q111 0 137 8q15 -29 15 -53q0 -29 -21 -47t-58 -18q-76 0 -181 6l-15 -115q25 4 55 4z" />
    <glyph glyph-name="six" unicode="6" 
d="M292 89q33 0 52 29.5t19 71.5q0 47 -19 85.5t-62 38.5q-33 0 -76 -23q0 -44 4 -77t12.5 -63t26 -46t43.5 -16zM284 -10q-66 0 -113 24t-72.5 66t-36.5 90t-11 105q0 101 38.5 190t119 148.5t186.5 59.5q44 0 63.5 -12.5t19.5 -47.5q0 -19 -6 -48q-23 7 -64 7
q-94 0 -143.5 -58.5t-57.5 -146.5q57 44 121 44q90 -1 140.5 -59t50.5 -139q0 -89 -62 -156t-173 -67z" />
    <glyph glyph-name="seven" unicode="7" 
d="M394 557q-145 -5 -280 -5q-36 0 -54.5 19.5t-18.5 49.5q0 25 12 49q56 -8 128 -8q300 0 359 2q9 -16 9 -38q0 -19 -6 -37q-29 -87 -267 -530q-21 -40 -39 -54.5t-39 -14.5q-74 0 -134 58q85 80 186.5 242.5t143.5 266.5z" />
    <glyph glyph-name="eight" unicode="8" 
d="M288 574q-57 0 -57 -46q0 -30 23 -64t50 -46q43 30 43 97q0 56 -59 59zM288 89q38 0 59.5 25.5t21.5 63.5q0 40 -24.5 78t-71.5 61q-28 -17 -47.5 -58t-19.5 -82q0 -39 20 -63.5t62 -24.5zM289 -10q-114 0 -176 53t-62 127q0 75 38 115.5t111 73.5q-60 29 -91.5 69.5
t-31.5 102.5q0 63 62 102.5t149 39.5q100 0 155.5 -43t55.5 -103q0 -45 -32 -86t-91 -66q74 -33 112.5 -80.5t38.5 -124.5q0 -74 -62 -127t-176 -53z" />
    <glyph glyph-name="nine" unicode="9" 
d="M278 574q-33 0 -52 -29.5t-19 -71.5q0 -47 19 -85.5t62 -38.5q33 0 76 23q0 44 -4 77t-12.5 63t-26 46t-43.5 16zM286 673q66 0 113 -24t72.5 -66t36.5 -90t11 -105q0 -101 -38.5 -190t-119 -148.5t-186.5 -59.5q-44 0 -63.5 12.5t-19.5 47.5q0 20 6 48q23 -7 64 -7
q94 0 143.5 58.5t57.5 146.5q-57 -44 -121 -44q-90 1 -140.5 59t-50.5 139q0 89 62 156t173 67z" />
    <glyph glyph-name="colon" unicode=":" horiz-adv-x="254" 
d="M123 298q-38 0 -64.5 26.5t-26.5 67.5q0 39 28 66t65 27t63.5 -27t26.5 -66q0 -40 -28 -67t-64 -27zM123 -10q-38 0 -64.5 26.5t-26.5 67.5q0 39 28 66t65 27t63.5 -27t26.5 -66q0 -40 -28 -67t-64 -27z" />
    <glyph glyph-name="semicolon" unicode=";" horiz-adv-x="270" 
d="M37 57q0 35 24.5 57t64.5 22q45 0 69.5 -32t24.5 -81q0 -70 -46 -128t-119 -58q-37 0 -37 39q0 5 2 21h5q27 0 47 21.5t20 45.5q0 41 -45 48q-10 21 -10 45zM127 298q-38 0 -64.5 26.5t-26.5 67.5q0 39 28 66t65 27t63.5 -27t26.5 -66q0 -40 -28 -67t-64 -27z" />
    <glyph glyph-name="less" unicode="&#x3c;" 
d="M220 254q19 -19 60 -55.5t92.5 -81.5t69.5 -61q-11 -21 -30.5 -35t-39.5 -14q-19 0 -36 16l-225 231l227 216q19 16 36 16q21 0 41 -15t29 -34q-25 -22 -78.5 -65.5t-97.5 -78.5t-48 -39z" />
    <glyph glyph-name="equal" unicode="=" 
d="M507 165q0 -25 -14 -42.5t-37 -17.5q-17 0 -78 5.5t-91 5.5q-113 0 -216 -11q-4 21 -4 42q0 23 12.5 41.5t38.5 18.5q4 0 68 -5t111 -5q136 0 205 10q5 -20 5 -42zM507 361q0 -25 -14 -42.5t-37 -17.5q-17 0 -78 5.5t-91 5.5q-113 0 -216 -11q-4 21 -4 42q0 23 12.5 41.5
t38.5 18.5q4 0 68 -5t111 -5q136 0 205 10q5 -20 5 -42z" />
    <glyph glyph-name="greater" unicode="&#x3e;" 
d="M354 254q-4 4 -48 39t-97.5 78.5t-78.5 65.5q9 19 29 34t41 15q17 0 36 -16l227 -216l-225 -231q-17 -16 -36 -16q-20 0 -39.5 14t-30.5 35q18 16 69.5 61t92.5 81.5t60 55.5z" />
    <glyph glyph-name="question" unicode="?" horiz-adv-x="422" 
d="M203 -10q-38 0 -64 25t-26 64q0 37 27.5 63t64.5 26q36 0 62.5 -26t26.5 -63q0 -38 -27.5 -63.5t-63.5 -25.5zM276 250q-41 -21 -74 -21q-45 0 -65.5 18t-20.5 44q0 37 21.5 73.5t47.5 62t47.5 60.5t21.5 69q0 25 -15 38.5t-41 13.5t-48.5 -20.5t-28.5 -54.5
q-95 11 -95 67q0 44 52 69t125 25q27 0 52.5 -3t54.5 -12t50 -23t35 -38.5t14 -56.5q0 -41 -14.5 -74t-35 -54t-41 -40.5t-35 -43.5t-14.5 -53q0 -21 7 -46z" />
    <glyph glyph-name="at" unicode="@" horiz-adv-x="839" 
d="M331 54q-46 0 -75.5 36.5t-29.5 105.5q0 102 59.5 174.5t145.5 72.5q99 0 170 -46q-36 -144 -36 -225q0 -55 25 -55q26 0 50 53t24 140q0 97 -50 150.5t-154 53.5q-87 0 -157 -51.5t-105.5 -126.5t-35.5 -153q0 -58 19.5 -101t53 -66t70.5 -34t79 -11q56 0 100.5 17
t52.5 42q52 -20 52 -58q0 -33 -60.5 -57.5t-142.5 -24.5q-47 0 -91.5 9t-88.5 30.5t-76 53.5t-52 83t-20 114q0 73 29 145t80.5 131.5t132.5 96.5t175 37q139 0 222 -71.5t83 -181.5q0 -114 -67 -191t-165 -77q-76 0 -98 77q-48 -92 -119 -92zM443 204q4 21 11.5 73t9.5 64
q-22 13 -45 13q-30 0 -49 -37.5t-19 -99.5q0 -29 9.5 -48.5t26.5 -19.5q32 0 56 55z" />
    <glyph glyph-name="A" unicode="A" horiz-adv-x="614" 
d="M371 288q-16 55 -38 141.5t-26 100.5q-62 -216 -70 -242q48 -2 76 -2q39 0 58 2zM300 187q-41 0 -89 4q-68 -164 -82 -209q-35 5 -51 8t-37 10.5t-29 19.5t-8 30q0 21 34.5 102t92.5 224t98 280q47 7 77 7q84 0 108 -73q74 -228 106 -310q78 -203 106 -258
q-47 -32 -93 -32q-59 0 -76 38q-11 26 -29.5 74t-34.5 87q-78 -2 -93 -2z" />
    <glyph glyph-name="B" unicode="B" 
d="M248 401q51 0 83 23.5t32 70.5q0 41 -32.5 59t-80.5 18q-21 0 -39 -3q4 -62 4 -166q11 -2 33 -2zM210 307q0 -46 -8 -190q46 -25 88 -25q43 0 69.5 27.5t26.5 78.5q0 47 -29.5 79.5t-88.5 32.5q-32 0 -58 -3zM45 53q16 114 16 334q0 186 -13 274q86 12 184 12
q59 0 108 -8.5t90.5 -27.5t65 -53.5t23.5 -82.5q0 -104 -107 -139q70 -23 101 -63.5t31 -107.5q0 -68 -38.5 -115t-96 -66.5t-128.5 -19.5q-140 0 -236 63z" />
    <glyph glyph-name="C" unicode="C" horiz-adv-x="629" 
d="M525 177q76 -35 76 -82q0 -29 -24.5 -51t-61 -33t-69.5 -16t-60 -5q-65 0 -124 17.5t-112.5 55t-85.5 107t-32 162.5q0 160 95 250.5t258 90.5q87 0 146.5 -31.5t59.5 -77.5q0 -35 -29 -57t-77 -28q-17 46 -54 69.5t-79 23.5q-69 0 -113.5 -63t-44.5 -157
q0 -111 45.5 -186t127.5 -75q46 0 88.5 21t69.5 65z" />
    <glyph glyph-name="D" unicode="D" horiz-adv-x="659" 
d="M43 53q13 92 15 336q0 175 -13 272q69 12 174 12q87 0 157.5 -17t128.5 -54.5t90 -105.5t32 -163q0 -150 -90 -246.5t-256 -96.5q-153 0 -238 63zM209 570q4 -59 4 -140q0 -195 -14 -311q55 -28 103 -28q78 0 119.5 63.5t41.5 158.5q0 129 -53.5 194.5t-153.5 65.5
q-24 0 -47 -3z" />
    <glyph glyph-name="E" unicode="E" horiz-adv-x="532" 
d="M207 561q4 -32 4 -154h79q64 0 118 6q6 -13 6 -42q0 -37 -17 -51.5t-61 -14.5h-125q0 -169 8 -203q44 -2 71 -2q163 0 210 23q12 -30 12 -69q0 -34 -26.5 -45t-105.5 -11q-239 0 -277 2q-29 1 -39 14t-10 43q0 16 1 74t1 93v200q0 141 -13 233q129 9 263 9q144 0 187 -16
q19 -7 19 -40q0 -39 -12 -68q-66 21 -223 21q-20 0 -70 -2z" />
    <glyph glyph-name="F" unicode="F" horiz-adv-x="512" 
d="M207 561q4 -32 4 -164h79q64 0 118 6q6 -13 6 -42q0 -37 -17 -51.5t-61 -14.5h-125v-92q0 -116 24 -192q-9 -4 -38 -9t-45 -5q-58 0 -77.5 20.5t-19.5 75.5q0 16 1 56t1 75v200q0 133 -14 233q129 9 263 9q144 0 187 -16q19 -7 19 -40q0 -39 -12 -68q-66 21 -223 21
q-20 0 -70 -2z" />
    <glyph glyph-name="G" unicode="G" horiz-adv-x="645" 
d="M606 92q0 -42 -63 -72t-160 -30q-161 0 -256 91t-95 251t95 250.5t258 90.5q87 0 146.5 -31.5t59.5 -77.5q0 -34 -28.5 -56.5t-77.5 -28.5q-17 46 -54.5 69.5t-78.5 23.5q-66 0 -112 -62t-46 -158q0 -111 45.5 -186t126.5 -75q67 0 94 38q-1 86 -8 167q39 8 66 8
q94 0 94 -58q0 -3 -3 -58t-3 -96z" />
    <glyph glyph-name="H" unicode="H" horiz-adv-x="666" 
d="M445 411v20q0 110 -9 227q38 8 79 8q38 0 64.5 -13t26.5 -41q0 -5 -3.5 -81t-3.5 -127v-201q0 -112 24 -192q-37 -14 -91 -14q-20 0 -33 2.5t-27.5 10t-21.5 26t-7 47.5q0 19 1 71.5t1 76.5v82q-38 -2 -117 -2q-82 0 -122 2v-110q0 -112 24 -192q-37 -14 -91 -14
q-20 0 -33 2.5t-27.5 10t-21.5 26t-7 47.5q0 19 1 71.5t1 76.5v200q0 110 -9 227q38 8 79 8q38 0 64.5 -13t26.5 -41q0 -5 -3.5 -78t-3.5 -123q38 -2 122 -2q80 0 117 2z" />
    <glyph glyph-name="I" unicode="I" horiz-adv-x="258" 
d="M52 231v200q0 110 -9 227q38 8 79 8q38 0 64.5 -13.5t26.5 -41.5q0 -5 -3.5 -80.5t-3.5 -126.5v-201q0 -112 24 -192q-37 -14 -91 -14q-20 0 -33 2.5t-27.5 10t-21.5 26t-7 47.5q0 19 1 71.5t1 76.5z" />
    <glyph glyph-name="J" unicode="J" horiz-adv-x="290" 
d="M56 -119q-40 0 -58.5 25t-22.5 72q72 12 92 47.5t20 110.5q0 21 -0.5 131.5t-0.5 163.5q0 110 -9 227q48 8 78 8q41 0 66.5 -14t25.5 -40q0 -1 -3.5 -77t-3.5 -130v-298q0 -53 -15.5 -95t-37.5 -66t-49 -39.5t-47 -20.5t-35 -5z" />
    <glyph glyph-name="K" unicode="K" horiz-adv-x="614" 
d="M52 231v200q0 110 -9 227q38 8 79 8q38 0 64.5 -13t26.5 -41q0 -5 -3.5 -81t-3.5 -127q81 57 160 133t103 136q47 -15 63 -31.5t16 -39.5q0 -66 -207 -217q115 -180 176 -253q32 -37 61 -37q3 0 27 3q9 -27 9 -45q0 -32 -29.5 -47.5t-71.5 -15.5q-55 0 -109 51
q-71 67 -181 263q-2 -1 -17 -11v-90q0 -112 24 -192q-37 -14 -91 -14q-20 0 -33 2.5t-27.5 10t-21.5 26t-7 47.5q0 19 1 71.5t1 76.5z" />
    <glyph glyph-name="L" unicode="L" horiz-adv-x="508" 
d="M52 224v207q0 110 -9 227q38 8 79 8q38 0 64.5 -13t26.5 -41q0 -5 -3.5 -79.5t-3.5 -125.5v-196q0 -77 8 -109q44 -2 72 -2q163 0 210 23q12 -30 12 -69q0 -34 -26.5 -45t-105.5 -11q-239 0 -277 2q-29 1 -39 14t-10 43q0 34 1 90.5t1 76.5z" />
    <glyph glyph-name="M" unicode="M" horiz-adv-x="821" 
d="M759 436v-233q0 -130 19 -193q-52 -13 -86 -13q-90 0 -90 75q0 12 0.5 55t1 126.5t0.5 161.5q-89 -251 -119 -407q-28 -10 -68 -10q-82 0 -97 37q-19 46 -59 183.5t-65 201.5v-217q0 -135 19 -198q-36 -8 -70 -8q-85 0 -85 57q0 16 1 79t1 98v252q0 112 -19 176
q63 9 100 9q91 0 118 -60q30 -67 58.5 -154.5t44 -143t48.5 -177.5q56 266 157 486q13 28 42 38t76 10q53 0 90 -8q-18 -60 -18 -223z" />
    <glyph glyph-name="N" unicode="N" horiz-adv-x="663" 
d="M608 4q-32 -7 -62 -7q-85 0 -115 47q-39 61 -89 150q-92 165 -137 237v-228q0 -127 21 -193q-29 -13 -75 -13q-50 0 -71 14.5t-21 54.5q0 16 1.5 73t1.5 92v200q0 161 -19 222q48 14 87 14q72 0 108 -44q73 -91 219 -348l-1 156q0 137 -7 228q42 7 62 7q98 0 98 -58
q0 -4 -4 -84.5t-4 -119.5v-171q0 -138 7 -229z" />
    <glyph glyph-name="O" unicode="O" horiz-adv-x="728" 
d="M363 -10q-151 0 -241 93t-90 248q0 157 89.5 249.5t241.5 92.5q153 0 243 -92.5t90 -249.5q0 -155 -90.5 -248t-242.5 -93zM532 313q0 66 -15.5 122t-55 96.5t-97.5 40.5q-78 0 -124 -59t-46 -151q0 -70 15.5 -128.5t55 -100.5t97.5 -42q81 0 125.5 61.5t44.5 160.5z" />
    <glyph glyph-name="P" unicode="P" horiz-adv-x="539" 
d="M271 324q43 0 67 34t24 92q0 69 -30 95.5t-93 26.5q-12 0 -32 -4q4 -46 4 -160v-69q32 -15 60 -15zM57 231v200q0 140 -14 230q86 12 172 12q310 0 310 -216q0 -107 -62.5 -169t-150.5 -62q-52 0 -101 30v-67q0 -102 24 -178q-31 -14 -94 -14q-51 0 -68.5 22t-17.5 64
q0 16 1 64.5t1 83.5z" />
    <glyph glyph-name="Q" unicode="Q" horiz-adv-x="728" 
d="M532 313q0 66 -15.5 122t-55 96.5t-97.5 40.5q-78 0 -124 -59t-46 -151q0 -70 15.5 -128.5t55 -100.5t97.5 -42q81 0 125.5 61.5t44.5 160.5zM538 -168q-85 0 -153.5 41t-82.5 122q-126 18 -198 107.5t-72 228.5q0 157 89.5 249.5t241.5 92.5q153 0 243 -92.5t90 -249.5
q0 -141 -76 -231.5t-206 -106.5q19 -59 99 -59q36 0 70.5 14t52.5 38q22 -14 36.5 -36t14.5 -44q0 -33 -43.5 -53.5t-105.5 -20.5z" />
    <glyph glyph-name="R" unicode="R" horiz-adv-x="581" 
d="M489 119q21 -24 52 -24q13 0 28 3q9 -25 9 -45q0 -34 -32.5 -48.5t-74.5 -14.5q-54 0 -87 34q-63 64 -130 248q-19 7 -19 29q0 20 11 46q11 -3 26 -3q44 0 67 34.5t23 90.5q0 57 -29 79.5t-89 22.5q-16 0 -38 -2q3 -40 3 -191v-179q0 -113 24 -188q-37 -14 -94 -14
q-50 0 -68 21.5t-18 64.5q0 16 1 64.5t1 83.5v200q0 134 -12 230q86 12 172 12q309 0 309 -209q0 -136 -121 -183q49 -120 86 -162z" />
    <glyph glyph-name="S" unicode="S" horiz-adv-x="547" 
d="M419 498q-16 29 -59 50.5t-83 21.5q-33 0 -53.5 -17.5t-20.5 -53.5q0 -32 23.5 -54t58 -32.5t75.5 -26.5t75.5 -34t58 -56t23.5 -92q0 -59 -22.5 -102t-61.5 -66.5t-83.5 -34.5t-95.5 -11q-92 0 -158.5 26t-66.5 68q0 31 17 50t58 41q25 -35 75 -58.5t97 -23.5
q40 0 65 19t25 59q0 38 -32.5 61t-78.5 37t-92 33.5t-78.5 64.5t-32.5 116q0 51 22 89t59.5 59.5t82 31.5t96.5 10q82 0 141 -24t59 -67q0 -26 -24.5 -49t-68.5 -35z" />
    <glyph glyph-name="T" unicode="T" horiz-adv-x="545" 
d="M196 218v185q0 87 -3 159q-128 0 -188 -6q-5 15 -5 49q0 19 7 31t22.5 17t29.5 6.5t38 1.5h215q168 0 228 4q5 -22 5 -46q0 -57 -76 -57h-114q-5 -95 -5 -185v-187q0 -101 24 -179q-44 -14 -96 -14q-48 0 -66 21.5t-18 64.5q0 15 1 59t1 76z" />
    <glyph glyph-name="U" unicode="U" horiz-adv-x="681" 
d="M457 77q-42 -41 -96.5 -64t-102.5 -23q-94 0 -148.5 44.5t-54.5 157.5q0 59 4.5 160t4.5 149q0 94 -17 151q37 14 81 14q54 0 76 -22t22 -82q0 -22 -6.5 -154.5t-6.5 -209.5q0 -51 28.5 -77.5t65.5 -26.5q38 0 81.5 22.5t70.5 52.5q0 7 0.5 32.5t0.5 87v157.5
q0 102 -9 212q38 8 78 8q44 0 68 -14.5t24 -39.5l-3 -78q-4 -79 -4 -168v-107q0 -107 5 -155t19 -93q-37 -14 -91 -14q-49 0 -67 17t-23 63z" />
    <glyph glyph-name="V" unicode="V" horiz-adv-x="625" 
d="M449 662q42 11 77 11q92 0 92 -62q0 -96 -66 -272.5t-133 -268.5q-53 -73 -136 -73q-44 0 -73 7q-32 158 -98.5 344t-124.5 262q61 56 113 56q36 0 56 -33q71 -119 150 -518q49 81 99 230.5t50 257.5q0 32 -6 59z" />
    <glyph glyph-name="W" unicode="W" horiz-adv-x="1003" 
d="M416 662q42 11 77 11q92 0 92 -62q0 -31 -8 -76q62 -109 117 -420q44 81 88.5 230.5t44.5 257.5q0 32 -6 59q42 11 77 11q92 0 92 -62q0 -96 -62.5 -272.5t-126.5 -268.5q-50 -73 -128 -73q-42 0 -70 7q-40 203 -80 338q-62 -178 -127 -272q-50 -73 -128 -73q-42 0 -70 7
q-30 159 -93 344.5t-118 261.5q61 56 113 56q36 0 56 -33q35 -67 71.5 -220t61.5 -298q44 81 88.5 230.5t44.5 257.5q0 32 -6 59z" />
    <glyph glyph-name="X" unicode="X" horiz-adv-x="641" 
d="M18 65q0 17 16.5 44.5t45.5 61t55.5 62t60.5 63t47 49.5q-55 89 -118.5 155.5t-108.5 95.5q63 77 121 77q34 0 57.5 -15t43.5 -50q51 -90 89 -184q99 165 109 249q145 -16 145 -75q0 -13 -11.5 -34.5t-35 -51.5t-42.5 -52.5t-52.5 -60.5t-46.5 -53q59 -100 128 -177
t116 -106q-60 -73 -127 -73q-54 0 -79 48q-107 197 -121 226q-48 -55 -93 -135.5t-55 -138.5q-59 5 -101.5 23.5t-42.5 51.5z" />
    <glyph glyph-name="Y" unicode="Y" horiz-adv-x="565" 
d="M298 391q35 54 76.5 151.5t42.5 130.5q144 -15 144 -75q0 -9 -6.5 -24.5t-21 -38.5t-27.5 -42.5t-36.5 -51.5t-35.5 -48t-38 -50t-32 -42v-98q0 -112 24 -192q-37 -14 -91 -14q-20 0 -33 2.5t-27.5 10t-21.5 26t-7 47.5q0 19 1 71.5t1 76.5v63q-146 275 -217 306
q51 69 107 69t92 -63q31 -56 106 -215z" />
    <glyph glyph-name="Z" unicode="Z" horiz-adv-x="567" 
d="M537 648q17 -17 17 -38q0 -23 -22 -54q-136 -184 -224 -300t-108 -140l-20 -23q45 0 70 1q167 6 272 32q19 -43 19 -73q0 -46 -80 -53q-66 -6 -172 -6q-155 0 -254 12q-18 22 -18 46q0 26 26 64q283 395 333 451q-48 0 -79 -1q-152 -6 -239 -27q-21 44 -21 72q0 15 9 29
t26 17q44 10 155 10q189 0 310 -19z" />
    <glyph glyph-name="bracketleft" unicode="[" horiz-adv-x="378" 
d="M228 640v-749q38 2 80 2q25 0 34.5 -12t9.5 -38q0 -17 -4 -33h-251v910h251q4 -12 4 -33q0 -28 -10.5 -38.5t-33.5 -10.5q-43 0 -80 2z" />
    <glyph glyph-name="backslash" unicode="\" horiz-adv-x="249" 
d="M105 218q-75 463 -75 484q0 39 52 39q17 0 30 -5q6 -73 42 -331q5 -38 23.5 -158.5t35 -224t16.5 -100.5q0 -40 -47 -40q-13 0 -35 5q-9 108 -42 331z" />
    <glyph glyph-name="bracketright" unicode="]" horiz-adv-x="358" 
d="M143 -109v749q-37 -2 -80 -2q-23 0 -33.5 10.5t-10.5 38.5q0 21 4 33h251v-910h-251q-4 16 -4 33q0 26 9.5 38t34.5 12q42 0 80 -2z" />
    <glyph glyph-name="asciicircum" unicode="^" horiz-adv-x="531" 
d="M267 543q-7 -7 -33 -35t-42.5 -45t-40.5 -39t-43 -33t-33 -11q-26 0 -59 33q28 42 112.5 128.5t137.5 133.5q54 -49 137.5 -134.5t111.5 -127.5q-33 -33 -58 -33q-9 0 -21.5 6.5t-28 19t-30 25t-32.5 31t-30 30.5t-28 29t-20 22z" />
    <glyph glyph-name="underscore" unicode="_" horiz-adv-x="535" 
d="M535 -110q0 -18 -10 -30t-26 -12q-15 0 -69 4t-82 4h-143q-114 0 -202 -8q-3 15 -3 30q0 16 9 29t27 13q3 0 63 -3.5t104 -3.5h142q127 0 187 7q3 -9 3 -30z" />
    <glyph glyph-name="grave" unicode="`" horiz-adv-x="269" 
d="M34 755q20 -26 56 -53t65 -44.5t51.5 -39t22.5 -40.5q0 -27 -39 -55q-37 27 -98.5 58.5t-93 54t-31.5 48.5q0 39 67 71z" />
    <glyph glyph-name="a" unicode="a" horiz-adv-x="494" 
d="M128 314q-88 16 -88 75q0 40 57.5 68t138.5 28q105 0 155 -40t50 -133q0 -8 -1 -59t-1 -76q0 -115 19 -172q-44 -12 -78 -12q-72 0 -84 58q-24 -28 -61.5 -44.5t-75.5 -16.5q-55 0 -92.5 35.5t-37.5 105.5q0 56 22.5 82t61.5 39q76 24 180 30q0 61 -13.5 85.5t-56.5 24.5
q-25 0 -53.5 -21t-41.5 -57zM292 210q-30 -5 -46 -9t-34.5 -12.5t-26 -22t-7.5 -33.5q0 -25 12 -37.5t30 -12.5q42 0 70 25q-1 9 -1 30q0 36 3 72z" />
    <glyph glyph-name="b" unicode="b" horiz-adv-x="544" 
d="M206 430q58 54 125 54q90 0 139 -65.5t49 -168.5q0 -110 -63 -185t-181 -75q-128 0 -220 68q7 60 7 215q0 129 -6 295q-5 123 -17 162q47 13 84 13q86 0 86 -65q0 -1 -2 -145q0 -26 -0.5 -60t-0.5 -43zM208 350q0 -11 0.5 -58.5t0.5 -75.5q0 -77 -4 -109q42 -21 77 -21
q89 0 89 154q0 22 -2.5 43t-9 47.5t-22.5 42.5t-39 16q-39 0 -90 -39z" />
    <glyph glyph-name="c" unicode="c" horiz-adv-x="477" 
d="M281 85q31 0 58.5 15.5t37.5 42.5q45 -16 59 -31t14 -36q0 -41 -48 -63.5t-125 -22.5q-112 0 -180 62.5t-68 174.5q0 66 22.5 117t58.5 81t78 45t85 15q63 0 120.5 -26t57.5 -72q0 -61 -98 -73q-9 34 -32 54t-51 20q-37 0 -64 -37.5t-27 -110.5q0 -155 102 -155z" />
    <glyph glyph-name="d" unicode="d" horiz-adv-x="544" 
d="M29 237q0 103 57 175.5t142 72.5q56 0 113 -34q2 64 2 101q0 109 -8 178q46 13 67 13q93 0 93 -64q0 -59 -4.5 -227t-4.5 -229q0 -158 19 -218q-48 -12 -78 -12q-42 0 -60 15.5t-24 42.5q-26 -27 -60.5 -44t-65.5 -17q-77 0 -132.5 70t-55.5 177zM337 368q-30 22 -62 22
q-45 0 -71 -39.5t-26 -104.5q0 -72 26 -118.5t64 -46.5q44 0 71 30q-2 206 -2 257z" />
    <glyph glyph-name="e" unicode="e" horiz-adv-x="492" 
d="M281 485q74 0 128 -37t54 -110q0 -148 -212 -148q-19 0 -69 2q0 -57 28.5 -83t70.5 -26q74 0 115 48q23 -11 37.5 -29.5t14.5 -37.5q0 -30 -35.5 -48t-69 -22t-64.5 -4q-110 0 -180 60.5t-70 184.5q0 82 38.5 140.5t94 84t119.5 25.5zM273 390q-36 0 -63 -32.5t-28 -95.5
q28 2 39.5 3.5t33 6.5t31 13.5t17.5 24t8 38.5q0 16 -11 29t-27 13z" />
    <glyph glyph-name="f" unicode="f" horiz-adv-x="387" 
d="M410 663q0 -33 -35 -70q-25 26 -69 26q-45 0 -60.5 -26t-15.5 -82v-38q89 2 132 8q7 -14 7 -41q0 -33 -18.5 -45.5t-55.5 -13.5q-47 -1 -65 -1v-193q0 -123 18 -182q-34 -8 -73 -8q-53 0 -73 12t-20 40q0 11 1 125t1 205q-19 0 -73 -6q-8 21 -8 45q0 56 81 56
q0 45 4.5 77.5t17.5 65t36 53t61.5 33t92.5 12.5q114 0 114 -52z" />
    <glyph glyph-name="g" unicode="g" horiz-adv-x="596" 
d="M262 99q-17 0 -43 2q-10 -27 -10 -39q0 -20 66 -20h116q62 0 105 -30.5t43 -95.5q0 -75 -86 -121.5t-207 -46.5q-111 0 -167 34t-56 84q0 40 60 98q-23 16 -23 45q0 16 22.5 51t52.5 65q-49 24 -76 68.5t-27 102.5q0 81 65.5 135t164.5 54q91 0 155 -45q49 59 105 59
q27 0 44 -16t17 -45q0 -21 -10 -51q-15 3 -29 3q-34 0 -69 -16q17 -36 17 -78q0 -91 -67.5 -144t-162.5 -53zM343 287q0 44 -22 73t-60 29q-79 0 -79 -84q0 -47 21 -78.5t58 -31.5q44 0 63 22.5t19 69.5zM316 -62h-134q-9 -24 -9 -45q0 -49 89 -49q65 0 98.5 17.5t33.5 42.5
q0 34 -78 34z" />
    <glyph glyph-name="h" unicode="h" horiz-adv-x="545" 
d="M120 743q38 0 59 -13t21 -51q0 -6 -3.5 -88t-3.5 -123v-44q63 60 143 60q68 0 112 -39t44 -111q0 -2 -1.5 -72t-1.5 -106q0 -86 17 -146q-43 -13 -87 -13q-80 0 -80 61q0 36 3 132.5t3 116.5q0 41 -16.5 61.5t-42.5 20.5q-42 0 -93 -49q2 -128 2 -185q0 -88 5 -154
q-33 -3 -59 -3q-100 0 -100 48q0 4 2.5 69.5t2.5 136.5v244q0 143 -7 234q38 13 81 13z" />
    <glyph glyph-name="i" unicode="i" horiz-adv-x="257" 
d="M128 520q-38 0 -64.5 26.5t-26.5 67.5q0 39 28 66t65 27t63.5 -27t26.5 -66q0 -40 -28 -67t-64 -27zM130 478q38 0 59 -13t21 -51q0 -6 -3.5 -88t-3.5 -123q0 -142 17 -193q-42 -13 -83 -13q-47 0 -65.5 16.5t-18.5 48.5q0 16 1.5 75t1.5 94q0 143 -7 234q38 13 81 13z
" />
    <glyph glyph-name="j" unicode="j" horiz-adv-x="284" 
d="M154 478q41 0 60.5 -14.5t19.5 -47.5q0 -5 -2 -43t-3.5 -90.5t-1.5 -92.5q0 -30 2 -117t2 -145q0 -88 -55.5 -134.5t-159.5 -46.5q-54 0 -100 16.5t-46 48.5q0 18 8.5 32.5t33.5 36.5q12 -16 40.5 -28.5t56.5 -12.5q33 0 53.5 19t20.5 62q0 6 -0.5 53t-1.5 119t-1 138
q0 143 -7 234q36 13 81 13zM153 520q-38 0 -64.5 26.5t-26.5 67.5q0 39 28 66t65 27t63.5 -27t26.5 -66q0 -40 -28 -67t-64 -27z" />
    <glyph glyph-name="k" unicode="k" horiz-adv-x="559" 
d="M193 403q84 80 173 80q52 0 89 -35.5t37 -89.5q0 -53 -34 -98t-98 -55q39 -75 59 -98q21 -25 54 -25q23 0 55 9q13 -26 13 -46q0 -26 -33 -40.5t-68 -14.5q-39 0 -61 7t-44 29q-42 44 -97 172q-22 5 -22 27q0 13 11 42q20 -4 39 -4q40 0 61.5 22.5t21.5 51.5
q0 24 -12.5 37.5t-33.5 13.5q-45 0 -110 -65v-78q0 -143 7 -234q-38 -13 -81 -13q-38 0 -59 13t-21 51q0 6 3.5 88t3.5 123v223q0 143 -7 234q38 13 81 13q38 0 59 -13t21 -51q0 -7 -2 -48t-3.5 -104.5t-1.5 -123.5z" />
    <glyph glyph-name="l" unicode="l" horiz-adv-x="249" 
d="M120 743q38 0 59 -13t21 -51q0 -6 -3.5 -88t-3.5 -123v-274q0 -132 17 -184q-42 -13 -83 -13q-47 0 -65.5 16.5t-18.5 48.5q0 16 1.5 70t1.5 88v276q0 143 -7 234q38 13 81 13z" />
    <glyph glyph-name="m" unicode="m" horiz-adv-x="816" 
d="M39 465q41 13 78 13q73 0 83 -59q61 65 138 65q96 0 131 -77q62 77 148 77q64 0 105 -39t41 -111q0 -2 -1.5 -72t-1.5 -106q0 -86 17 -146q-43 -13 -87 -13q-80 0 -80 61q0 36 3 132.5t3 116.5q0 41 -14 61.5t-37 20.5q-37 0 -81 -49q2 -128 2 -185q0 -88 5 -154
q-33 -3 -59 -3q-100 0 -100 48q0 5 2.5 73t2.5 134v56q0 41 -14.5 60.5t-36.5 19.5q-37 0 -81 -49q2 -128 2 -185q0 -88 5 -154q-33 -3 -59 -3q-100 0 -100 48q0 4 2.5 70t2.5 137q0 163 -19 212z" />
    <glyph glyph-name="n" unicode="n" horiz-adv-x="557" 
d="M39 465q41 13 78 13q73 0 83 -59q65 65 148 65q68 0 112 -39t44 -111q0 -2 -1.5 -72t-1.5 -106q0 -86 17 -146q-43 -13 -87 -13q-80 0 -80 61q0 36 3 132.5t3 116.5q0 41 -16.5 61.5t-42.5 20.5q-42 0 -93 -49q2 -128 2 -185q0 -88 5 -154q-33 -3 -59 -3q-100 0 -100 48
q0 4 2.5 70t2.5 137q0 163 -19 212z" />
    <glyph glyph-name="o" unicode="o" horiz-adv-x="543" 
d="M271 -10q-109 0 -175.5 66t-66.5 176q0 115 66.5 184t175.5 69t176 -69t67 -184q0 -110 -67 -176t-176 -66zM365 212q0 76 -25 126.5t-69 50.5q-43 0 -67.5 -41t-24.5 -108q0 -66 24.5 -109.5t67.5 -43.5q45 0 69.5 34.5t24.5 90.5z" />
    <glyph glyph-name="p" unicode="p" horiz-adv-x="546" 
d="M39 460q36 18 79 18q22 0 37 -3.5t29 -20t16 -46.5q22 38 57.5 57.5t76.5 19.5q86 0 134.5 -63.5t48.5 -162.5q0 -66 -19.5 -125t-66.5 -101.5t-114 -42.5q-66 0 -113 44q0 -6 0.5 -54t1 -66.5t2.5 -55t6 -61t10 -42.5q-34 -8 -76 -8q-54 0 -73 13t-19 44q0 98 1.5 243
t1.5 202q0 159 -20 211zM206 108q33 -23 80 -23q40 0 59.5 47.5t19.5 111.5q0 74 -19 109.5t-49 35.5q-51 0 -92 -50q1 -86 1 -231z" />
    <glyph glyph-name="q" unicode="q" horiz-adv-x="547" 
d="M342 49q-50 -59 -121 -59q-82 0 -140 75q-52 68 -52 166q0 117 69.5 185.5t172.5 68.5q136 0 235 -78q-16 -171 -16 -415q0 -181 18 -232q-41 -13 -85 -13q-85 0 -85 63q0 50 2 132t2 107zM344 130q2 121 12 232q-46 26 -81 26q-44 0 -69.5 -35.5t-25.5 -101.5
q0 -74 25.5 -119t62.5 -45q39 0 76 43z" />
    <glyph glyph-name="r" unicode="r" horiz-adv-x="405" 
d="M120 478q38 0 59 -13t21 -51v-13q27 32 64.5 58t74.5 26q29 0 45 -13.5t16 -35.5q0 -41 -36 -80q-35 22 -65 22q-44 0 -103 -61q-3 -59 -3 -114q0 -142 17 -193q-42 -13 -83 -13q-47 0 -65.5 16.5t-18.5 48.5q0 16 1.5 75t1.5 94q0 143 -7 234q38 13 81 13z" />
    <glyph glyph-name="s" unicode="s" horiz-adv-x="436" 
d="M308 324q-8 31 -28 48t-44 17q-23 0 -39 -12t-16 -35q0 -24 23.5 -38t57 -22.5t67 -21t57 -41.5t23.5 -74q0 -76 -60.5 -115.5t-142.5 -39.5q-26 0 -51 2.5t-57.5 10t-52 26t-19.5 45.5q0 54 81 84q10 -36 38 -54t59 -18q67 0 67 48q0 23 -35.5 37.5t-77.5 24t-77.5 43
t-35.5 89.5q0 71 60.5 114t136.5 43q35 0 70.5 -7.5t64.5 -29t29 -52.5q0 -27 -24.5 -46.5t-73.5 -25.5z" />
    <glyph glyph-name="t" unicode="t" horiz-adv-x="428" 
d="M97 181v200q-52 -1 -89 -7q-8 22 -8 42q0 59 81 59h14q-2 61 -6 102q32 13 73 13q27 0 42.5 -2.5t30 -16.5t14.5 -41q0 -16 -3 -56q104 0 165 8q7 -14 7 -43q0 -53 -59 -56q-38 -2 -115 -2q-3 -99 -3 -198q0 -24 1 -36.5t5.5 -30.5t16 -26t29.5 -8q50 0 80 30
q41 -29 41 -59q0 -28 -34.5 -45.5t-82.5 -17.5q-109 0 -154.5 48t-45.5 143z" />
    <glyph glyph-name="u" unicode="u" horiz-adv-x="553" 
d="M514 10q-49 -13 -84 -13q-32 0 -54.5 14.5t-24.5 42.5q-73 -64 -158 -64q-141 0 -141 141q0 3 1.5 73t1.5 105q0 104 -16 156q39 13 81 13q86 0 86 -61q0 -33 -3 -123t-3 -108q0 -48 15.5 -74t38.5 -26q51 0 95 47q-1 39 -1 121q0 116 -7 211q40 13 77 13q40 0 62 -12
t22 -50q0 -10 -2.5 -61t-3.5 -80v-72q0 -127 18 -193z" />
    <glyph glyph-name="v" unicode="v" horiz-adv-x="495" 
d="M393 485q41 0 60.5 -12.5t19.5 -42.5q0 -58 -45.5 -186t-92.5 -191q-40 -56 -118 -56q-31 0 -66 9q-22 110 -74.5 252t-86.5 180q46 42 96 42q54 0 80 -60q50 -123 90 -275q71 187 71 294q0 16 -3 31q32 15 69 15z" />
    <glyph glyph-name="w" unicode="w" horiz-adv-x="763" 
d="M367 485q41 0 61 -12.5t20 -42.5q0 -18 -4 -38q66 -131 90 -247q60 184 60 294q0 16 -3 31q33 15 69 15q41 0 61 -12.5t20 -42.5q0 -58 -43.5 -185.5t-87.5 -191.5q-37 -56 -112 -56q-31 0 -62 9q-19 94 -46 200q-35 -97 -73 -153q-37 -56 -112 -56q-31 0 -62 9
q-22 111 -71 252.5t-82 179.5q46 42 96 42q54 0 80 -60q45 -136 75 -275q60 184 60 294q0 16 -3 31q32 15 69 15z" />
    <glyph glyph-name="x" unicode="x" horiz-adv-x="478" 
d="M308 485q126 -7 126 -60q0 -50 -128 -192q68 -117 163 -183q-19 -23 -29 -33t-28 -18.5t-40 -8.5q-47 0 -74 41q-34 53 -74 138l-16 -24t-18 -28t-15 -26t-16 -32t-10.5 -31.5t-8.5 -37.5q-116 2 -116 56q0 22 19.5 54t39 54.5t53 57t38.5 39.5q-38 62 -81.5 107.5
t-76.5 66.5q40 60 100 60q45 0 69 -37q34 -53 68 -133q53 98 55 170z" />
    <glyph glyph-name="y" unicode="y" horiz-adv-x="507" 
d="M412 485q75 0 75 -50q0 -47 -35.5 -159.5t-84.5 -216.5q-70 -147 -151 -264q-30 -45 -70 -45q-51 0 -98 61q84 63 156 177q-135 374 -204 441q65 51 112 51q23 0 36.5 -10t23.5 -32q16 -35 48 -144t50 -191q27 82 49.5 180t22.5 141q0 24 -3 46q34 15 73 15z" />
    <glyph glyph-name="z" unicode="z" horiz-adv-x="494" 
d="M380 1q-56 -7 -146 -7q-121 0 -201 12q-17 21 -17 51t22 52l261 272q-30 2 -45 2q-103 0 -209 -32q-9 32 -9 62q2 35 31 46q29 12 112 12q155 0 260 -20q16 -16 16 -46q0 -29 -17 -46l-265 -280h7q101 0 249 40q12 -30 12 -59q0 -21 -9.5 -34t-20.5 -17t-31 -8z" />
    <glyph glyph-name="braceleft" unicode="{" horiz-adv-x="408" 
d="M172 286q27 -9 52.5 -40.5t25.5 -64.5v-179q0 -25 3 -35.5t19.5 -17.5t53.5 -7q25 0 36.5 -10.5t11.5 -39.5q0 -21 -4 -33q-13 -1 -36 -1q-115 0 -165 27.5t-50 83.5v209q0 30 -18.5 56.5t-55.5 26.5v50q37 0 56.5 27t19.5 57v209q0 56 49.5 83.5t164.5 27.5q23 0 36 -1
q4 -12 4 -33q0 -29 -11.5 -39.5t-36.5 -10.5q-52 0 -64.5 -12t-12.5 -48v-178q0 -35 -25.5 -66.5t-52.5 -40.5z" />
    <glyph glyph-name="bar" unicode="|" horiz-adv-x="575" 
d="M244 302v17q0 335 -12 413q23 5 43 5q66 0 66 -55q0 -5 -2.5 -76t-5 -187.5t-2.5 -232.5v-17q0 -335 12 -413q-23 -5 -43 -5q-66 0 -66 55q0 5 2.5 76t5 187.5t2.5 232.5z" />
    <glyph glyph-name="braceright" unicode="}" horiz-adv-x="394" 
d="M222 286q-27 9 -52.5 40.5t-25.5 66.5v178q0 25 -3.5 35.5t-20 17.5t-53.5 7q-25 0 -36.5 10.5t-11.5 39.5q0 21 4 33q13 1 36 1q115 0 164.5 -27.5t49.5 -83.5v-209q0 -30 19.5 -57t56.5 -27v-50q-37 0 -55.5 -26.5t-18.5 -56.5v-209q0 -56 -50 -83.5t-165 -27.5
q-23 0 -36 1q-4 12 -4 33q0 29 11.5 39.5t36.5 10.5q37 0 53.5 7t19.5 17.5t3 35.5v179q0 33 25.5 64.5t52.5 40.5z" />
    <glyph glyph-name="asciitilde" unicode="~" horiz-adv-x="598" 
d="M26 267q0 82 128 82q55 0 142.5 -20t129.5 -20q73 0 112 35q34 -36 34 -69q0 -42 -45.5 -62t-107.5 -20q-35 0 -118 20t-128 20q-74 0 -113 -35q-34 36 -34 69z" />
    <glyph glyph-name="exclamdown" unicode="&#xa1;" horiz-adv-x="315" 
d="M149 485q38 0 64 -25t26 -64q0 -37 -27.5 -63t-64.5 -26q-36 0 -62.5 26t-26.5 63q0 38 27.5 63.5t63.5 25.5zM71 -144q0 31 8 106.5t8 117.5q0 112 -13 147q38 19 74 19q35 0 58.5 -16t23.5 -46q0 -8 -0.5 -37t-0.5 -50q0 -231 21 -305q-46 -11 -94 -11q-85 0 -85 75z
" />
    <glyph glyph-name="cent" unicode="&#xa2;" 
d="M542 151q0 -40 -59 -63t-126 -26q2 -41 6 -75l-22 -3q-40 0 -43 39v42q-106 12 -172 81t-66 181q0 108 65 176.5t173 83.5q-2 50 -6 92q17 5 25 5q38 0 38 -39v-54q36 -1 77 -10t75.5 -30.5t34.5 -50.5q0 -25 -24.5 -45.5t-66.5 -27.5q-41 64 -96 68l1 -338q55 2 96 70
q42 -7 66 -28t24 -48zM212 325q0 -55 21.5 -98t64.5 -60v320q-40 -17 -63 -60.5t-23 -101.5z" />
    <glyph glyph-name="sterling" unicode="&#xa3;" 
d="M354 290q0 -91 -152 -194q22 -3 81 -3q109 0 206 34q27 -33 27 -65q0 -29 -24 -44q-33 -21 -180 -21q-174 0 -246 11q-17 22 -17 80q69 35 108 85.5t39 93.5q0 22 -7 50q-87 -2 -108 -4q-9 17 -9 41q0 20 22 29t66 12q-35 78 -35 117q0 59 57.5 110t145.5 51q51 0 78 -18
t27 -45q0 -19 -15 -37.5t-41 -29.5q-13 19 -36.5 31.5t-46.5 12.5q-47 0 -47 -46q0 -14 7 -32.5t15 -31.5t24 -37t23 -36q100 2 141 9q13 -27 13 -51q0 -49 -65 -49h-53q2 -14 2 -23z" />
    <glyph glyph-name="yen" unicode="&#xa5;" 
d="M402 354h36q36 0 96 6l3 -22q0 -40 -39 -43h-135v-61l75 1q36 0 96 6l3 -22q0 -40 -39 -43h-135q0 -104 18 -162q-30 -18 -87 -18q-79 0 -79 63q0 25 2 117h-73q-38 0 -98 -6q-5 17 -5 25q0 38 39 38h59h78v62h-73q-38 0 -98 -6q-5 17 -5 25q0 38 39 38h59h54
q-33 70 -83 145.5t-105 109.5q28 35 49.5 49.5t54.5 14.5q27 0 43.5 -11t32.5 -35q22 -34 119 -222q35 55 75 145.5t41 122.5q20 2 34 2q98 0 98 -61q0 -25 -19 -59q-58 -104 -131 -199z" />
    <glyph glyph-name="brokenbar" unicode="&#xa6;" 
d="M244 11v7q0 139 -12 171q23 5 43 5q66 0 66 -55q0 -2 -2.5 -31.5t-5 -77.5t-2.5 -96v-7q0 -138 12 -170q-23 -6 -43 -6q-66 0 -66 54q0 2 2.5 31.5t5 78t2.5 96.5zM244 554v7q0 139 -12 171q23 5 43 5q66 0 66 -55q0 -2 -2.5 -31.5t-5 -77.5t-2.5 -96v-7q0 -138 12 -170
q-23 -6 -43 -6q-66 0 -66 54q0 2 2.5 31.5t5 78t2.5 96.5z" />
    <glyph glyph-name="section" unicode="&#xa7;" horiz-adv-x="484" 
d="M56 532q0 62 57.5 101t150.5 39q58 0 114 -21t56 -58q0 -56 -87 -77q-8 29 -34 47t-55 18q-31 0 -47.5 -13t-16.5 -34q0 -31 26.5 -55.5t64.5 -42.5t76 -38.5t64.5 -55.5t26.5 -81q0 -61 -51 -103q33 -40 33 -90q0 -61 -56.5 -103.5t-157.5 -42.5q-22 0 -50 3.5t-62 12
t-56.5 27t-22.5 42.5q0 43 65 68q35 -63 125 -63q71 0 71 61q0 32 -26.5 55t-64 38.5t-75 33t-64 51.5t-26.5 82q0 64 54 104q-32 42 -32 95zM138 387q-1 -5 -1 -14q0 -36 30.5 -62.5t93.5 -57.5t89 -49q1 3 1 10q0 31 -31.5 57t-91.5 59.5t-90 56.5z" />
    <glyph glyph-name="dieresis" unicode="&#xa8;" horiz-adv-x="426" 
d="M326 520q-38 0 -64.5 26.5t-26.5 67.5q0 39 28 66t65 27t63.5 -27t26.5 -66q0 -40 -28 -67t-64 -27zM97 520q-38 0 -64.5 26.5t-26.5 67.5q0 39 28 66t65 27t63.5 -27t26.5 -66q0 -40 -28 -67t-64 -27z" />
    <glyph glyph-name="copyright" unicode="&#xa9;" horiz-adv-x="858" 
d="M750 320q0 132 -79.5 214.5t-193.5 82.5q-116 0 -195.5 -82t-79.5 -215t79.5 -215t195.5 -82q114 0 193.5 82t79.5 215zM822 320q0 -150 -100.5 -252t-244.5 -102q-147 0 -247 101.5t-100 252.5q0 152 100 253t247 101q145 0 245 -101t100 -253zM627 161q0 -26 -41 -45.5
t-97 -19.5q-41 0 -78 11.5t-70.5 36t-53.5 70t-20 105.5q0 114 66 173t150 59q30 0 61.5 -8.5t57.5 -29t26 -49.5q0 -39 -73 -49q-8 31 -31 47t-48 16q-40 0 -67 -41t-27 -107q0 -84 34.5 -122.5t81.5 -38.5q54 0 88 46q41 -25 41 -54z" />
    <glyph glyph-name="ordfeminine" unicode="&#xaa;" horiz-adv-x="339" 
d="M314 269q0 -25 -20 -40t-54 -15q-12 0 -43.5 3.5t-48.5 3.5h-5q-43 0 -95 -16q-7 29 -7 48q0 23 17 39t53 16q7 0 38.5 -3t51.5 -3h14q49 0 89 15q10 -25 10 -48zM90 551q-21 2 -36.5 13.5t-15.5 26.5q0 16 13.5 27.5t35 16t38.5 6.5t34 2q54 0 91 -21t37 -67
q0 -13 -0.5 -43t-0.5 -42q0 -68 10 -97q-16 -11 -49 -11q-43 0 -48 31q-27 -35 -76 -35q-37 0 -65 23t-28 63q0 54 55 69q48 14 113 16q0 33 -8.5 46t-35.5 13q-48 0 -64 -37zM200 482q-26 -3 -38 -5.5t-23 -10t-11 -20.5q0 -29 25 -29q30 0 45 15v16q0 23 2 34z" />
    <glyph glyph-name="guillemotleft" unicode="&#xab;" horiz-adv-x="579" 
d="M202 235q33 -40 66 -90t33 -65q0 -30 -71 -56q-75 63 -184 211q110 151 183 211q44 -20 57.5 -33.5t13.5 -28.5q0 -14 -31.5 -60.5t-66.5 -88.5zM461 235q33 -40 66 -90t33 -65q0 -30 -71 -56q-75 63 -184 211q110 151 183 211q44 -20 57.5 -33.5t13.5 -28.5
q0 -14 -31.5 -60.5t-66.5 -88.5z" />
    <glyph glyph-name="logicalnot" unicode="&#xac;" 
d="M117 336h378q3 -233 3 -236q0 -36 -13.5 -52t-49.5 -16q-38 0 -64 12q25 85 25 202v15h-186q-81 0 -143 -21q-10 22 -10 43q0 53 60 53z" />
    <glyph glyph-name="registered" unicode="&#xae;" horiz-adv-x="585" 
d="M483 440q0 82 -49 132.5t-120 50.5q-72 0 -121 -50.5t-49 -132.5t49 -132.5t121 -50.5q71 0 120 50.5t49 132.5zM542 440q0 -99 -66.5 -166t-161.5 -67q-97 0 -163 67t-66 166q0 100 66 166.5t163 66.5q95 0 161.5 -67t66.5 -166zM310 451q39 0 39 37q0 18 -13.5 29.5
t-32.5 11.5h-13v-77q4 -1 20 -1zM425 356q4 -8 4 -16q0 -11 -10 -17.5t-24 -6.5q-25 0 -40 18q-43 45 -65 85v-23q0 -42 9 -68q-19 -10 -37 -10q-47 0 -47 30q0 9 1 30t1 29v67q0 52 -5 86q75 6 97 6q112 0 112 -78q0 -51 -60 -70q7 -14 46 -58q4 -4 18 -4z" />
    <glyph glyph-name="macron" unicode="&#xaf;" horiz-adv-x="352" 
d="M166 646h28q64 0 152 8q6 -36 6 -51q0 -53 -46 -53l-21 2q-21 2 -54 3.5t-63 1.5h-29q-66 0 -133 -7q-6 36 -6 50q0 54 41 54q4 0 53 -4t72 -4z" />
    <glyph glyph-name="degree" unicode="&#xb0;" horiz-adv-x="420" 
d="M126 547q0 -40 18.5 -65.5t52.5 -25.5t53 27t19 68q0 39 -18 65t-51 26q-35 0 -54.5 -27t-19.5 -68zM40 547q0 71 45.5 117.5t118.5 46.5q68 0 112.5 -45.5t44.5 -113.5q0 -72 -45 -118.5t-117 -46.5q-70 0 -114.5 45.5t-44.5 114.5z" />
    <glyph glyph-name="plusminus" unicode="&#xb1;" 
d="M332 333q85 0 188 11q4 -12 4 -42q0 -25 -14.5 -42.5t-37.5 -17.5q-24 0 -65 5t-76 5q0 -65 11 -126q-32 -6 -43 -6q-24 0 -42 12.5t-18 36.5q0 10 5 42t5 42q-34 0 -196 -11q-4 21 -4 42q0 23 12.5 41.5t39.5 18.5q8 0 48.5 -4t101.5 -6q0 73 -12 172q13 4 43 4
q25 0 42.5 -14t17.5 -37t-5 -57t-5 -69zM499 57q0 -25 -14 -42.5t-37 -17.5q-17 0 -76.5 5.5t-89.5 5.5q-113 0 -216 -11q-4 21 -4 42q0 23 12.5 41.5t38.5 18.5q4 0 67.5 -5t109.5 -5q134 0 203 10q6 -12 6 -42z" />
    <glyph glyph-name="twosuperior" unicode="&#xb2;" horiz-adv-x="485" 
d="M121 509q-31 4 -49.5 20.5t-18.5 38.5q0 34 41 62q64 43 145 43q83 0 126.5 -35t43.5 -89q0 -30 -13.5 -59t-30 -49.5t-48.5 -46t-51 -38.5t-56 -36q18 -1 53 -1q92 0 156 19q24 -37 24 -64q0 -34 -28 -42q-43 -12 -169 -12q-41 0 -82.5 1t-70.5 1q-54 0 -54 49
q0 15 3 31q49 32 74.5 49.5t67.5 52.5t62 68.5t20 67.5q0 42 -51 42q-26 0 -51.5 -18t-42.5 -55z" />
    <glyph glyph-name="threesuperior" unicode="&#xb3;" horiz-adv-x="451" 
d="M151 485q51 0 76.5 20t25.5 52q0 36 -45 36q-28 0 -57 -14t-41 -34q-48 12 -48 56q0 33 57.5 52.5t101.5 19.5q89 0 132.5 -29t43.5 -78q0 -80 -85 -108q47 -15 70 -46t23 -68q0 -62 -53.5 -99t-159.5 -37q-17 0 -38.5 2.5t-49.5 8.5t-46.5 19.5t-18.5 32.5q0 38 48 68
q38 -47 104 -47q34 0 52.5 13.5t18.5 49.5q0 28 -25 47t-79 19q-26 0 -26 37q0 16 3 26q3 0 8 0.5t8 0.5z" />
    <glyph glyph-name="acute" unicode="&#xb4;" horiz-adv-x="282" 
d="M290 629q-24 -15 -111 -51.5t-105 -54.5q-35 28 -35 51q0 19 26 38.5t60 34.5t74.5 41.5t61.5 54.5q53 -29 53 -69q0 -29 -24 -45z" />
    <glyph glyph-name="mu" unicode="&#xb5;" horiz-adv-x="550" 
d="M511 10q-49 -13 -84 -13q-32 0 -54.5 14.5t-24.5 42.5q-14 -27 -42 -45.5t-57 -18.5q-41 0 -63 22q-6 -30 -6 -66q0 -83 30 -191q-25 -8 -69 -8q-54 0 -73 13t-19 44q0 96 1.5 238.5t1.5 198.5v68q0 104 -16 156q39 13 81 13q86 0 86 -61q0 -33 -3 -123t-3 -108
q0 -48 15.5 -74t38.5 -26q51 0 95 47q-1 39 -1 121q0 116 -7 211q40 13 77 13q40 0 62 -12t22 -50q0 -14 -3 -79t-3 -134q0 -127 18 -193z" />
    <glyph glyph-name="paragraph" unicode="&#xb6;" horiz-adv-x="504" 
d="M312 502q-28 0 -53 3q-9 -98 -9 -269q0 -25 -50 -25q-70 0 -120.5 49.5t-50.5 128.5q0 86 55 136.5t138 50.5q28 0 86 -2t77 -2q69 0 99 1q7 -17 7 -31q0 -41 -79 -41q-12 -142 -12 -333q0 -12 2 -101t2 -134q0 -28 -13 -43t-51 -15q-34 0 -57 9q19 52 19 229
q0 91 10 389z" />
    <glyph glyph-name="periodcentered" unicode="&#xb7;" horiz-adv-x="235" 
d="M117 168q-38 0 -64.5 26.5t-26.5 67.5q0 39 28 66t65 27t63.5 -27t26.5 -66q0 -40 -28 -67t-64 -27z" />
    <glyph glyph-name="cedilla" unicode="&#xb8;" horiz-adv-x="230" 
d="M92 32l86 -5q-18 -54 -18 -57q0 -11 14 -21t30.5 -19t30.5 -28.5t14 -45.5q0 -39 -46.5 -73.5t-113.5 -34.5q-35 0 -52.5 13t-17.5 32q0 27 25 54q13 -13 34 -13q30 0 30 38q0 20 -22.5 38t-22.5 36q0 33 29 86z" />
    <glyph glyph-name="onesuperior" unicode="&#xb9;" horiz-adv-x="397" 
d="M269 308q35 0 73 4q9 -20 9 -41q0 -23 -12 -38t-37 -15q-8 0 -51 1t-95 1q-67 0 -104 -1q-6 18 -6 37q0 55 54 55h43q0 9 0.5 61.5t0.5 89.5q0 60 -3 117q-51 -3 -89 -16q-7 15 -7 35q0 42 41 53q79 22 117 22q65 0 65 -47q0 -5 -1 -33t-2.5 -71t-1.5 -85v-36
q0 -62 6 -93z" />
    <glyph glyph-name="ordmasculine" unicode="&#xba;" horiz-adv-x="355" 
d="M314 269q0 -25 -20 -40t-54 -15q-12 0 -43.5 3.5t-48.5 3.5h-5q-43 0 -95 -16q-7 29 -7 48q0 23 17 39t53 16q7 0 38.5 -3t51.5 -3h14q49 0 89 15q10 -25 10 -48zM177 366q-66 0 -106.5 38.5t-40.5 100.5q0 63 40.5 100.5t106.5 37.5q67 0 107.5 -37.5t40.5 -100.5
q0 -62 -40.5 -100.5t-107.5 -38.5zM239 496q0 40 -17 66t-45 26q-29 0 -44.5 -20.5t-15.5 -54.5q0 -40 16 -67t44 -27q29 0 45.5 21.5t16.5 55.5z" />
    <glyph glyph-name="guillemotright" unicode="&#xbb;" horiz-adv-x="579" 
d="M145 235q-35 42 -66.5 88.5t-31.5 60.5q0 15 13.5 28.5t57.5 33.5q73 -60 183 -211q-109 -148 -184 -211q-71 26 -71 56q0 15 33 65t66 90zM404 235q-35 42 -66.5 88.5t-31.5 60.5q0 15 13.5 28.5t57.5 33.5q73 -60 183 -211q-109 -148 -184 -211q-71 26 -71 56
q0 15 33 65t66 90z" />
    <glyph glyph-name="onequarter" unicode="&#xbc;" horiz-adv-x="1019" 
d="M279 308q35 0 73 4q9 -20 9 -41q0 -23 -12 -38t-37 -15q-8 0 -51 1t-95 1q-67 0 -104 -1q-6 18 -6 37q0 55 54 55h43q0 9 0.5 61.5t0.5 89.5q0 60 -3 117q-51 -3 -89 -16q-7 15 -7 35q0 42 41 53q79 22 117 22q65 0 65 -47q0 -5 -1 -33t-2.5 -71t-1.5 -85v-36
q0 -62 6 -93zM671 195q21 -2 104 -2q0 111 1 148q-63 -75 -105 -146zM743 436q23 19 84 19q34 0 66 -5q0 -2 -1.5 -36.5t-3 -93.5t-1.5 -122q47 3 67 12q10 -18 10 -44q0 -32 -19.5 -44t-58.5 -12q0 -67 15 -112q-30 -8 -55 -8q-44 0 -59 12t-15 40q0 25 1 67q-135 0 -186 7
q-19 4 -25 14.5t-6 34.5q0 6 0.5 16t0.5 14q37 63 91.5 134.5t94.5 106.5zM277 -38l235 474q98 197 142 303q26 0 48 -11.5t22 -32.5q0 -9 -30 -70l-30 -61.5t-20.5 -41t-54 -107t-111.5 -222.5q-96 -195 -140 -302q-29 0 -49.5 11t-20.5 32q0 12 9 28z" />
    <glyph glyph-name="onehalf" unicode="&#xbd;" horiz-adv-x="1078" 
d="M704 288q-31 4 -49.5 20.5t-18.5 38.5q0 34 41 62q64 43 145 43q83 0 126.5 -35t43.5 -89q0 -30 -13.5 -59t-30 -49.5t-48.5 -46t-51 -38.5t-56 -36q18 -1 53 -1q92 0 156 19q24 -37 24 -64q0 -34 -28 -42q-43 -12 -169 -12q-41 0 -82.5 1t-70.5 1q-54 0 -54 49
q0 14 3 31q49 32 74.5 49.5t67.5 52.5t62 68.5t20 67.5q0 42 -51 42q-26 0 -51.5 -18t-42.5 -55zM279 308q35 0 73 4q9 -20 9 -41q0 -23 -12 -38t-37 -15q-8 0 -51 1t-95 1q-67 0 -104 -1q-6 18 -6 37q0 55 54 55h43q0 9 0.5 61.5t0.5 89.5q0 60 -3 117q-51 -3 -89 -16
q-7 15 -7 35q0 42 41 53q79 22 117 22q65 0 65 -47q0 -5 -1 -33t-2.5 -71t-1.5 -85v-36q0 -62 6 -93zM277 -38l235 474q98 197 142 303q26 0 48 -11.5t22 -32.5q0 -9 -30 -70l-30 -61.5t-20.5 -41t-54 -107t-111.5 -222.5q-96 -195 -140 -302q-29 0 -49.5 11t-20.5 32
q0 12 9 28z" />
    <glyph glyph-name="threequarters" unicode="&#xbe;" horiz-adv-x="1057" 
d="M161 485q51 0 76.5 20t25.5 52q0 36 -45 36q-28 0 -57 -14t-41 -34q-48 12 -48 56q0 33 57.5 52.5t101.5 19.5q89 0 132.5 -29t43.5 -78q0 -80 -85 -108q47 -15 70 -46t23 -68q0 -62 -53.5 -99t-159.5 -37q-17 0 -38.5 2.5t-49.5 8.5t-46.5 19.5t-18.5 32.5q0 38 48 68
q38 -47 104 -47q34 0 52.5 13.5t18.5 49.5q0 28 -25 47t-79 19q-26 0 -26 37q0 16 3 26q3 0 8 0.5t8 0.5zM708 195q21 -2 104 -2q0 111 1 148q-63 -75 -105 -146zM780 436q23 19 84 19q34 0 66 -5q0 -2 -1.5 -36.5t-3 -93.5t-1.5 -122q47 3 67 12q10 -18 10 -44
q0 -32 -19.5 -44t-58.5 -12q0 -67 15 -112q-30 -8 -55 -8q-44 0 -59 12t-15 40q0 25 1 67q-135 0 -186 7q-19 4 -25 14.5t-6 34.5q0 6 0.5 16t0.5 14q37 63 91.5 134.5t94.5 106.5zM314 -38l235 474q98 197 142 303q26 0 48 -11.5t22 -32.5q0 -9 -30 -70l-30 -61.5
t-20.5 -41t-54 -107t-111.5 -222.5q-96 -195 -140 -302q-29 0 -49.5 11t-20.5 32q0 12 9 28z" />
    <glyph glyph-name="questiondown" unicode="&#xbf;" horiz-adv-x="406" 
d="M219 485q38 0 64 -25t26 -64q0 -37 -27.5 -63t-64.5 -26q-36 0 -62.5 26t-26.5 63q0 38 27.5 63.5t63.5 25.5zM146 225q41 21 74 21q45 0 65.5 -18t20.5 -44q0 -37 -21.5 -73.5t-47.5 -62t-47.5 -60.5t-21.5 -69q0 -25 15 -38.5t41 -13.5t48.5 20.5t28.5 54.5
q95 -11 95 -67q0 -44 -52 -69t-125 -25q-27 0 -52.5 3t-54.5 12t-50 23t-35 38.5t-14 56.5q0 41 14.5 74t35 54t41 40.5t35 43.5t14.5 53q0 21 -7 46z" />
    <glyph glyph-name="Agrave" unicode="&#xc0;" horiz-adv-x="614" 
d="M371 288q-16 55 -38 141.5t-26 100.5q-62 -216 -70 -242q48 -2 76 -2q39 0 58 2zM300 187q-41 0 -89 4q-68 -164 -82 -209q-35 5 -51 8t-37 10.5t-29 19.5t-8 30q0 21 34.5 102t92.5 224t98 280q47 7 77 7q84 0 108 -73q74 -228 106 -310q78 -203 106 -258
q-47 -32 -93 -32q-59 0 -76 38q-11 26 -29.5 74t-34.5 87q-78 -2 -93 -2zM166 948q20 -26 56 -53t65 -44.5t51.5 -39t22.5 -40.5q0 -27 -39 -55q-37 27 -98.5 58.5t-93 54t-31.5 48.5q0 39 67 71z" />
    <glyph glyph-name="Aacute" unicode="&#xc1;" horiz-adv-x="614" 
d="M371 288q-16 55 -38 141.5t-26 100.5q-62 -216 -70 -242q48 -2 76 -2q39 0 58 2zM300 187q-41 0 -89 4q-68 -164 -82 -209q-35 5 -51 8t-37 10.5t-29 19.5t-8 30q0 21 34.5 102t92.5 224t98 280q47 7 77 7q84 0 108 -73q74 -228 106 -310q78 -203 106 -258
q-47 -32 -93 -32q-59 0 -76 38q-11 26 -29.5 74t-34.5 87q-78 -2 -93 -2zM465 822q-24 -15 -111 -51.5t-105 -54.5q-35 28 -35 51q0 19 26 38.5t60 34.5t74.5 41.5t61.5 54.5q53 -29 53 -69q0 -29 -24 -45z" />
    <glyph glyph-name="Acircumflex" unicode="&#xc2;" horiz-adv-x="614" 
d="M371 288q-16 55 -38 141.5t-26 100.5q-62 -216 -70 -242q48 -2 76 -2q39 0 58 2zM300 187q-41 0 -89 4q-68 -164 -82 -209q-35 5 -51 8t-37 10.5t-29 19.5t-8 30q0 21 34.5 102t92.5 224t98 280q47 7 77 7q84 0 108 -73q74 -228 106 -310q78 -203 106 -258
q-47 -32 -93 -32q-59 0 -76 38q-11 26 -29.5 74t-34.5 87q-78 -2 -93 -2zM296 912q164 -90 164 -143q0 -17 -17.5 -34t-44.5 -23q-24 28 -50 50t-40 30l-14 9q-99 -81 -123 -81q-17 0 -28.5 7.5t-27.5 30.5q82 89 181 154z" />
    <glyph glyph-name="Atilde" unicode="&#xc3;" horiz-adv-x="614" 
d="M371 288q-16 55 -38 141.5t-26 100.5q-62 -216 -70 -242q48 -2 76 -2q39 0 58 2zM300 187q-41 0 -89 4q-68 -164 -82 -209q-35 5 -51 8t-37 10.5t-29 19.5t-8 30q0 21 34.5 102t92.5 224t98 280q47 7 77 7q84 0 108 -73q74 -228 106 -310q78 -203 106 -258
q-47 -32 -93 -32q-59 0 -76 38q-11 26 -29.5 74t-34.5 87q-78 -2 -93 -2zM479 817q0 -35 -40 -67.5t-88 -32.5q-24 0 -68 21.5t-61 21.5q-22 0 -68 -40q-39 14 -39 41q0 34 40.5 67t87.5 33q24 0 68.5 -21.5t61.5 -21.5q23 0 67 40q13 -2 26 -13.5t13 -27.5z" />
    <glyph glyph-name="Adieresis" unicode="&#xc4;" horiz-adv-x="614" 
d="M371 288q-16 55 -38 141.5t-26 100.5q-62 -216 -70 -242q48 -2 76 -2q39 0 58 2zM300 187q-41 0 -89 4q-68 -164 -82 -209q-35 5 -51 8t-37 10.5t-29 19.5t-8 30q0 21 34.5 102t92.5 224t98 280q47 7 77 7q84 0 108 -73q74 -228 106 -310q78 -203 106 -258
q-47 -32 -93 -32q-59 0 -76 38q-11 26 -29.5 74t-34.5 87q-78 -2 -93 -2zM405 713q-38 0 -64.5 26.5t-26.5 67.5q0 39 28 66t65 27t63.5 -27t26.5 -66q0 -41 -28 -67.5t-64 -26.5zM176 713q-38 0 -64.5 26.5t-26.5 67.5q0 39 28 66t65 27t63.5 -27t26.5 -66q0 -41 -28 -67.5
t-64 -26.5z" />
    <glyph glyph-name="Aring" unicode="&#xc5;" horiz-adv-x="614" 
d="M371 288q-16 55 -38 141.5t-26 100.5q-62 -216 -70 -242q48 -2 76 -2q39 0 58 2zM300 187q-41 0 -89 4q-68 -164 -82 -209q-35 5 -51 8t-37 10.5t-29 19.5t-8 30q0 21 34.5 102t92.5 224t98 280q47 7 77 7q84 0 108 -73q74 -228 106 -310q78 -203 106 -258
q-47 -32 -93 -32q-59 0 -76 38q-11 26 -29.5 74t-34.5 87q-78 -2 -93 -2zM296 733q-51 0 -83.5 32t-32.5 84q0 53 32.5 85t83.5 32q52 0 83.5 -32t31.5 -85q0 -52 -31.5 -84t-83.5 -32zM350 844q0 31 -15 51.5t-39 20.5q-25 0 -40 -17t-15 -45q0 -31 15 -51t40 -20
q26 0 40 16.5t14 44.5z" />
    <glyph glyph-name="AE" unicode="&#xc6;" horiz-adv-x="816" 
d="M260 288q52 -2 80 -2v196q-2 -4 -80 -194zM491 561q4 -32 4 -154h79q64 0 118 6q6 -13 6 -42q0 -37 -17 -51.5t-61 -14.5h-125q0 -169 8 -203q44 -2 71 -2q163 0 210 23q12 -30 12 -69q0 -34 -26.5 -45t-105.5 -11q-239 0 -277 2q-29 1 -39 14t-10 43q0 14 2 130h-28
q-16 0 -84 2q-83 -144 -106 -199q-72 8 -97 23t-25 41q0 15 15 45.5t55 100.5t67 121q100 190 159 333q120 12 294 12q144 0 187 -16q19 -7 19 -40q0 -39 -12 -68q-66 21 -223 21q-20 0 -70 -2z" />
    <glyph glyph-name="Ccedilla" unicode="&#xc7;" horiz-adv-x="629" 
d="M525 177q76 -35 76 -82q0 -29 -24.5 -51t-61 -33t-69.5 -16t-60 -5q-13 0 -39 2q-5 -15 -5 -22q0 -11 14 -21t30.5 -19t30.5 -28.5t14 -45.5q0 -39 -46.5 -73.5t-113.5 -34.5q-35 0 -52.5 13t-17.5 32q0 27 25 54q13 -13 34 -13q30 0 30 38q0 20 -22.5 38t-22.5 36
q0 20 17 61q-102 29 -166 109t-64 216q0 160 95 250.5t258 90.5q87 0 146.5 -31.5t59.5 -77.5q0 -35 -29 -57t-77 -28q-17 46 -54 69.5t-79 23.5q-69 0 -113.5 -63t-44.5 -157q0 -111 45.5 -186t127.5 -75q46 0 88.5 21t69.5 65z" />
    <glyph glyph-name="Egrave" unicode="&#xc8;" horiz-adv-x="532" 
d="M207 561q4 -32 4 -154h79q64 0 118 6q6 -13 6 -42q0 -37 -17 -51.5t-61 -14.5h-125q0 -169 8 -203q44 -2 71 -2q163 0 210 23q12 -30 12 -69q0 -34 -26.5 -45t-105.5 -11q-239 0 -277 2q-29 1 -39 14t-10 43q0 16 1 74t1 93v200q0 141 -13 233q129 9 263 9q144 0 187 -16
q19 -7 19 -40q0 -39 -12 -68q-66 21 -223 21q-20 0 -70 -2zM147 948q20 -26 56 -53t65 -44.5t51.5 -39t22.5 -40.5q0 -27 -39 -55q-37 27 -98.5 58.5t-93 54t-31.5 48.5q0 39 67 71z" />
    <glyph glyph-name="Eacute" unicode="&#xc9;" horiz-adv-x="532" 
d="M207 561q4 -32 4 -154h79q64 0 118 6q6 -13 6 -42q0 -37 -17 -51.5t-61 -14.5h-125q0 -169 8 -203q44 -2 71 -2q163 0 210 23q12 -30 12 -69q0 -34 -26.5 -45t-105.5 -11q-239 0 -277 2q-29 1 -39 14t-10 43q0 16 1 74t1 93v200q0 141 -13 233q129 9 263 9q144 0 187 -16
q19 -7 19 -40q0 -39 -12 -68q-66 21 -223 21q-20 0 -70 -2zM446 822q-24 -15 -111 -51.5t-105 -54.5q-35 28 -35 51q0 19 26 38.5t60 34.5t74.5 41.5t61.5 54.5q53 -29 53 -69q0 -29 -24 -45z" />
    <glyph glyph-name="Ecircumflex" unicode="&#xca;" horiz-adv-x="532" 
d="M207 561q4 -32 4 -154h79q64 0 118 6q6 -13 6 -42q0 -37 -17 -51.5t-61 -14.5h-125q0 -169 8 -203q44 -2 71 -2q163 0 210 23q12 -30 12 -69q0 -34 -26.5 -45t-105.5 -11q-239 0 -277 2q-29 1 -39 14t-10 43q0 16 1 74t1 93v200q0 141 -13 233q129 9 263 9q144 0 187 -16
q19 -7 19 -40q0 -39 -12 -68q-66 21 -223 21q-20 0 -70 -2zM277 912q164 -90 164 -143q0 -17 -17.5 -34t-44.5 -23q-24 28 -50 50t-40 30l-14 9q-99 -81 -123 -81q-17 0 -28.5 7.5t-27.5 30.5q82 89 181 154z" />
    <glyph glyph-name="Edieresis" unicode="&#xcb;" horiz-adv-x="532" 
d="M207 561q4 -32 4 -154h79q64 0 118 6q6 -13 6 -42q0 -37 -17 -51.5t-61 -14.5h-125q0 -169 8 -203q44 -2 71 -2q163 0 210 23q12 -30 12 -69q0 -34 -26.5 -45t-105.5 -11q-239 0 -277 2q-29 1 -39 14t-10 43q0 16 1 74t1 93v200q0 141 -13 233q129 9 263 9q144 0 187 -16
q19 -7 19 -40q0 -39 -12 -68q-66 21 -223 21q-20 0 -70 -2zM386 713q-38 0 -64.5 26.5t-26.5 67.5q0 39 28 66t65 27t63.5 -27t26.5 -66q0 -41 -28 -67.5t-64 -26.5zM157 713q-38 0 -64.5 26.5t-26.5 67.5q0 39 28 66t65 27t63.5 -27t26.5 -66q0 -41 -28 -67.5t-64 -26.5z
" />
    <glyph glyph-name="Igrave" unicode="&#xcc;" horiz-adv-x="258" 
d="M52 231v200q0 110 -9 227q38 8 79 8q38 0 64.5 -13.5t26.5 -41.5q0 -5 -3.5 -80.5t-3.5 -126.5v-201q0 -112 24 -192q-37 -14 -91 -14q-20 0 -33 2.5t-27.5 10t-21.5 26t-7 47.5q0 19 1 71.5t1 76.5zM5 948q20 -26 56 -53t65 -44.5t51.5 -39t22.5 -40.5q0 -27 -39 -55
q-37 27 -98.5 58.5t-93 54t-31.5 48.5q0 39 67 71z" />
    <glyph glyph-name="Iacute" unicode="&#xcd;" horiz-adv-x="258" 
d="M52 231v200q0 110 -9 227q38 8 79 8q38 0 64.5 -13.5t26.5 -41.5q0 -5 -3.5 -80.5t-3.5 -126.5v-201q0 -112 24 -192q-37 -14 -91 -14q-20 0 -33 2.5t-27.5 10t-21.5 26t-7 47.5q0 19 1 71.5t1 76.5zM304 822q-24 -15 -111 -51.5t-105 -54.5q-35 28 -35 51q0 19 26 38.5
t60 34.5t74.5 41.5t61.5 54.5q53 -29 53 -69q0 -29 -24 -45z" />
    <glyph glyph-name="Icircumflex" unicode="&#xce;" horiz-adv-x="258" 
d="M52 231v200q0 110 -9 227q38 8 79 8q38 0 64.5 -13.5t26.5 -41.5q0 -5 -3.5 -80.5t-3.5 -126.5v-201q0 -112 24 -192q-37 -14 -91 -14q-20 0 -33 2.5t-27.5 10t-21.5 26t-7 47.5q0 19 1 71.5t1 76.5zM135 912q164 -90 164 -143q0 -17 -17.5 -34t-44.5 -23q-24 28 -50 50
t-40 30l-14 9q-99 -81 -123 -81q-17 0 -28.5 7.5t-27.5 30.5q82 89 181 154z" />
    <glyph glyph-name="Idieresis" unicode="&#xcf;" horiz-adv-x="258" 
d="M52 231v200q0 110 -9 227q38 8 79 8q38 0 64.5 -13.5t26.5 -41.5q0 -5 -3.5 -80.5t-3.5 -126.5v-201q0 -112 24 -192q-37 -14 -91 -14q-20 0 -33 2.5t-27.5 10t-21.5 26t-7 47.5q0 19 1 71.5t1 76.5zM15 713q-38 0 -64.5 26.5t-26.5 67.5q0 39 28 66t65 27t63.5 -27
t26.5 -66q0 -41 -28 -67.5t-64 -26.5zM244 713q-38 0 -64.5 26.5t-26.5 67.5q0 39 28 66t65 27t63.5 -27t26.5 -66q0 -41 -28 -67.5t-64 -26.5z" />
    <glyph glyph-name="Eth" unicode="&#xd0;" horiz-adv-x="689" 
d="M73 53q10 78 14 252q-46 -1 -91 -6q-6 13 -6 42q0 37 17 51.5t61 14.5h20q0 155 -13 254q69 12 174 12q87 0 157.5 -17t128.5 -54.5t90 -105.5t32 -163q0 -150 -90 -246.5t-256 -96.5q-153 0 -238 63zM239 570q4 -59 4 -140v-23h18q64 0 118 6q6 -13 6 -42
q0 -37 -17 -51.5t-61 -14.5h-66q-3 -105 -12 -186q55 -28 103 -28q78 0 119.5 63.5t41.5 158.5q0 129 -53.5 194.5t-153.5 65.5q-24 0 -47 -3z" />
    <glyph glyph-name="Ntilde" unicode="&#xd1;" horiz-adv-x="652" 
d="M608 4q-32 -7 -62 -7q-85 0 -115 47q-39 61 -89 150q-92 165 -137 237v-228q0 -127 21 -193q-29 -13 -75 -13q-50 0 -71 14.5t-21 54.5q0 16 1.5 73t1.5 92v200q0 161 -19 222q48 14 87 14q72 0 108 -44q73 -91 219 -348l-1 156q0 137 -7 228q42 7 62 7q98 0 98 -58
q0 -4 -4 -84.5t-4 -119.5v-171q0 -138 7 -229zM515 817q0 -35 -40 -67.5t-88 -32.5q-24 0 -68 21.5t-61 21.5q-22 0 -68 -40q-39 14 -39 41q0 34 40.5 67t87.5 33q24 0 68.5 -21.5t61.5 -21.5q23 0 67 40q13 -2 26 -13.5t13 -27.5z" />
    <glyph glyph-name="Ograve" unicode="&#xd2;" horiz-adv-x="728" 
d="M363 -10q-151 0 -241 93t-90 248q0 157 89.5 249.5t241.5 92.5q153 0 243 -92.5t90 -249.5q0 -155 -90.5 -248t-242.5 -93zM532 313q0 66 -15.5 122t-55 96.5t-97.5 40.5q-78 0 -124 -59t-46 -151q0 -70 15.5 -128.5t55 -100.5t97.5 -42q81 0 125.5 61.5t44.5 160.5z
M234 948q20 -26 56 -53t65 -44.5t51.5 -39t22.5 -40.5q0 -27 -39 -55q-37 27 -98.5 58.5t-93 54t-31.5 48.5q0 39 67 71z" />
    <glyph glyph-name="Oacute" unicode="&#xd3;" horiz-adv-x="728" 
d="M363 -10q-151 0 -241 93t-90 248q0 157 89.5 249.5t241.5 92.5q153 0 243 -92.5t90 -249.5q0 -155 -90.5 -248t-242.5 -93zM532 313q0 66 -15.5 122t-55 96.5t-97.5 40.5q-78 0 -124 -59t-46 -151q0 -70 15.5 -128.5t55 -100.5t97.5 -42q81 0 125.5 61.5t44.5 160.5z
M533 822q-24 -15 -111 -51.5t-105 -54.5q-35 28 -35 51q0 19 26 38.5t60 34.5t74.5 41.5t61.5 54.5q53 -29 53 -69q0 -29 -24 -45z" />
    <glyph glyph-name="Ocircumflex" unicode="&#xd4;" horiz-adv-x="728" 
d="M363 -10q-151 0 -241 93t-90 248q0 157 89.5 249.5t241.5 92.5q153 0 243 -92.5t90 -249.5q0 -155 -90.5 -248t-242.5 -93zM532 313q0 66 -15.5 122t-55 96.5t-97.5 40.5q-78 0 -124 -59t-46 -151q0 -70 15.5 -128.5t55 -100.5t97.5 -42q81 0 125.5 61.5t44.5 160.5z
M364 912q164 -90 164 -143q0 -17 -17.5 -34t-44.5 -23q-24 28 -50 50t-40 30l-14 9q-99 -81 -123 -81q-17 0 -28.5 7.5t-27.5 30.5q82 89 181 154z" />
    <glyph glyph-name="Otilde" unicode="&#xd5;" horiz-adv-x="728" 
d="M363 -10q-151 0 -241 93t-90 248q0 157 89.5 249.5t241.5 92.5q153 0 243 -92.5t90 -249.5q0 -155 -90.5 -248t-242.5 -93zM532 313q0 66 -15.5 122t-55 96.5t-97.5 40.5q-78 0 -124 -59t-46 -151q0 -70 15.5 -128.5t55 -100.5t97.5 -42q81 0 125.5 61.5t44.5 160.5z
M547 817q0 -35 -40 -67.5t-88 -32.5q-24 0 -68 21.5t-61 21.5q-22 0 -68 -40q-39 14 -39 41q0 34 40.5 67t87.5 33q24 0 68.5 -21.5t61.5 -21.5q23 0 67 40q13 -2 26 -13.5t13 -27.5z" />
    <glyph glyph-name="Odieresis" unicode="&#xd6;" horiz-adv-x="728" 
d="M363 -10q-151 0 -241 93t-90 248q0 157 89.5 249.5t241.5 92.5q153 0 243 -92.5t90 -249.5q0 -155 -90.5 -248t-242.5 -93zM532 313q0 66 -15.5 122t-55 96.5t-97.5 40.5q-78 0 -124 -59t-46 -151q0 -70 15.5 -128.5t55 -100.5t97.5 -42q81 0 125.5 61.5t44.5 160.5z
M473 713q-38 0 -64.5 26.5t-26.5 67.5q0 39 28 66t65 27t63.5 -27t26.5 -66q0 -41 -28 -67.5t-64 -26.5zM244 713q-38 0 -64.5 26.5t-26.5 67.5q0 39 28 66t65 27t63.5 -27t26.5 -66q0 -41 -28 -67.5t-64 -26.5z" />
    <glyph glyph-name="multiply" unicode="&#xd7;" 
d="M345 252q15 -15 75 -68.5t98 -84.5q-33 -53 -73 -53q-18 0 -33 15q-20 19 -62 66t-63 68q-95 -94 -159 -173q-19 13 -27.5 20t-17.5 21.5t-9 31.5q0 19 14 33q7 7 51 44.5t90 80.5q-100 97 -174 161q35 54 72 54q19 0 34 -16q7 -7 46.5 -52.5t80.5 -89.5q132 144 158 176
q20 -11 36.5 -31.5t16.5 -41.5q0 -18 -15 -33q-18 -19 -67 -62t-72 -66z" />
    <glyph glyph-name="Oslash" unicode="&#xd8;" horiz-adv-x="728" 
d="M363 -10q-77 0 -137 24l-23 -41q-22 -40 -28 -57q-46 5 -46 31q0 10 25 55l21 38q-143 90 -143 291q0 157 89.5 249.5t241.5 92.5q80 0 145 -28l23 42q10 18 28 57q46 -5 46 -31q0 -11 -22 -50l-24 -44q65 -44 101 -118t36 -170q0 -155 -90.5 -248t-242.5 -93zM364 572
q-78 0 -124 -59t-46 -151q0 -126 47 -201l210 380q-38 31 -87 31zM532 313q0 111 -42 182l-208 -379q34 -25 80 -25q81 0 125.5 61.5t44.5 160.5z" />
    <glyph glyph-name="Ugrave" unicode="&#xd9;" horiz-adv-x="681" 
d="M457 77q-42 -41 -96.5 -64t-102.5 -23q-94 0 -148.5 44.5t-54.5 157.5q0 59 4.5 160t4.5 149q0 94 -17 151q37 14 81 14q54 0 76 -22t22 -82q0 -22 -6.5 -154.5t-6.5 -209.5q0 -51 28.5 -77.5t65.5 -26.5q38 0 81.5 22.5t70.5 52.5q0 7 0.5 32.5t0.5 87v157.5
q0 102 -9 212q38 8 78 8q44 0 68 -14.5t24 -39.5l-3 -78q-4 -79 -4 -168v-107q0 -107 5 -155t19 -93q-37 -14 -91 -14q-49 0 -67 17t-23 63zM212 948q20 -26 56 -53t65 -44.5t51.5 -39t22.5 -40.5q0 -27 -39 -55q-37 27 -98.5 58.5t-93 54t-31.5 48.5q0 39 67 71z" />
    <glyph glyph-name="Uacute" unicode="&#xda;" horiz-adv-x="681" 
d="M457 77q-42 -41 -96.5 -64t-102.5 -23q-94 0 -148.5 44.5t-54.5 157.5q0 59 4.5 160t4.5 149q0 94 -17 151q37 14 81 14q54 0 76 -22t22 -82q0 -22 -6.5 -154.5t-6.5 -209.5q0 -51 28.5 -77.5t65.5 -26.5q38 0 81.5 22.5t70.5 52.5q0 7 0.5 32.5t0.5 87v157.5
q0 102 -9 212q38 8 78 8q44 0 68 -14.5t24 -39.5l-3 -78q-4 -79 -4 -168v-107q0 -107 5 -155t19 -93q-37 -14 -91 -14q-49 0 -67 17t-23 63zM511 822q-24 -15 -111 -51.5t-105 -54.5q-35 28 -35 51q0 19 26 38.5t60 34.5t74.5 41.5t61.5 54.5q53 -29 53 -69q0 -29 -24 -45z
" />
    <glyph glyph-name="Ucircumflex" unicode="&#xdb;" horiz-adv-x="681" 
d="M457 77q-42 -41 -96.5 -64t-102.5 -23q-94 0 -148.5 44.5t-54.5 157.5q0 59 4.5 160t4.5 149q0 94 -17 151q37 14 81 14q54 0 76 -22t22 -82q0 -22 -6.5 -154.5t-6.5 -209.5q0 -51 28.5 -77.5t65.5 -26.5q38 0 81.5 22.5t70.5 52.5q0 7 0.5 32.5t0.5 87v157.5
q0 102 -9 212q38 8 78 8q44 0 68 -14.5t24 -39.5l-3 -78q-4 -79 -4 -168v-107q0 -107 5 -155t19 -93q-37 -14 -91 -14q-49 0 -67 17t-23 63zM342 912q164 -90 164 -143q0 -17 -17.5 -34t-44.5 -23q-24 28 -50 50t-40 30l-14 9q-99 -81 -123 -81q-17 0 -28.5 7.5t-27.5 30.5
q82 89 181 154z" />
    <glyph glyph-name="Udieresis" unicode="&#xdc;" horiz-adv-x="681" 
d="M457 77q-42 -41 -96.5 -64t-102.5 -23q-94 0 -148.5 44.5t-54.5 157.5q0 59 4.5 160t4.5 149q0 94 -17 151q37 14 81 14q54 0 76 -22t22 -82q0 -22 -6.5 -154.5t-6.5 -209.5q0 -51 28.5 -77.5t65.5 -26.5q38 0 81.5 22.5t70.5 52.5q0 7 0.5 32.5t0.5 87v157.5
q0 102 -9 212q38 8 78 8q44 0 68 -14.5t24 -39.5l-3 -78q-4 -79 -4 -168v-107q0 -107 5 -155t19 -93q-37 -14 -91 -14q-49 0 -67 17t-23 63zM451 713q-38 0 -64.5 26.5t-26.5 67.5q0 39 28 66t65 27t63.5 -27t26.5 -66q0 -41 -28 -67.5t-64 -26.5zM222 713q-38 0 -64.5 26.5
t-26.5 67.5q0 39 28 66t65 27t63.5 -27t26.5 -66q0 -41 -28 -67.5t-64 -26.5z" />
    <glyph glyph-name="Yacute" unicode="&#xdd;" horiz-adv-x="565" 
d="M298 391q35 54 76.5 151.5t42.5 130.5q144 -15 144 -75q0 -9 -6.5 -24.5t-21 -38.5t-27.5 -42.5t-36.5 -51.5t-35.5 -48t-38 -50t-32 -42v-98q0 -112 24 -192q-37 -14 -91 -14q-20 0 -33 2.5t-27.5 10t-21.5 26t-7 47.5q0 19 1 71.5t1 76.5v63q-146 275 -217 306
q51 69 107 69t92 -63q31 -56 106 -215zM468 822q-24 -15 -111 -51.5t-105 -54.5q-35 28 -35 51q0 19 26 38.5t60 34.5t74.5 41.5t61.5 54.5q53 -29 53 -69q0 -29 -24 -45z" />
    <glyph glyph-name="Thorn" unicode="&#xde;" horiz-adv-x="543" 
d="M52 231v200q0 110 -9 227q38 8 79 8q38 0 64.5 -13.5t26.5 -41.5q0 -5 -2 -43q309 -2 309 -216q0 -107 -62.5 -169t-150.5 -62q-51 0 -100 29q3 -74 23 -139q-37 -14 -91 -14q-20 0 -33 2.5t-27.5 10t-21.5 26t-7 47.5q0 19 1 71.5t1 76.5zM266 219q43 0 67 34t24 92
q0 69 -30 95.5t-93 26.5l-27 -3q-1 -20 -1 -60v-170q32 -15 60 -15z" />
    <glyph glyph-name="germandbls" unicode="&#xdf;" horiz-adv-x="620" 
d="M207 459v-273q0 -36 0.5 -76.5t0.5 -48.5q0 -33 -28.5 -48.5t-69.5 -15.5t-68 11q20 67 20 197v259q0 68 41 117t99 70.5t124 21.5q78 0 132.5 -31t54.5 -84q0 -32 -11 -56t-26.5 -37.5t-31 -24t-26.5 -22t-11 -24.5q0 -24 19 -45t46 -38.5t54 -37.5t46 -52.5t19 -72.5
q0 -59 -53 -108.5t-127 -49.5q-63 0 -106 25t-43 59q0 53 70 77q23 -64 65 -64q17 0 30.5 14t13.5 33q0 28 -26 54.5t-57 44.5t-57 48.5t-26 66.5q0 21 9 38.5t22 30l26 25t22 29.5t9 36q0 34 -17.5 51.5t-43.5 17.5q-36 0 -65.5 -31.5t-29.5 -85.5z" />
    <glyph glyph-name="agrave" unicode="&#xe0;" horiz-adv-x="494" 
d="M128 314q-88 16 -88 75q0 40 57.5 68t138.5 28q105 0 155 -40t50 -133q0 -8 -1 -59t-1 -76q0 -115 19 -172q-44 -12 -78 -12q-72 0 -84 58q-24 -28 -61.5 -44.5t-75.5 -16.5q-55 0 -92.5 35.5t-37.5 105.5q0 56 22.5 82t61.5 39q76 24 180 30q0 61 -13.5 85.5t-56.5 24.5
q-25 0 -53.5 -21t-41.5 -57zM292 210q-30 -5 -46 -9t-34.5 -12.5t-26 -22t-7.5 -33.5q0 -25 12 -37.5t30 -12.5q42 0 70 25q-1 9 -1 30q0 36 3 72zM113 755q20 -26 56 -53t65 -44.5t51.5 -39t22.5 -40.5q0 -27 -39 -55q-37 27 -98.5 58.5t-93 54t-31.5 48.5q0 39 67 71z" />
    <glyph glyph-name="aacute" unicode="&#xe1;" horiz-adv-x="494" 
d="M128 314q-88 16 -88 75q0 40 57.5 68t138.5 28q105 0 155 -40t50 -133q0 -8 -1 -59t-1 -76q0 -115 19 -172q-44 -12 -78 -12q-72 0 -84 58q-24 -28 -61.5 -44.5t-75.5 -16.5q-55 0 -92.5 35.5t-37.5 105.5q0 56 22.5 82t61.5 39q76 24 180 30q0 61 -13.5 85.5t-56.5 24.5
q-25 0 -53.5 -21t-41.5 -57zM292 210q-30 -5 -46 -9t-34.5 -12.5t-26 -22t-7.5 -33.5q0 -25 12 -37.5t30 -12.5q42 0 70 25q-1 9 -1 30q0 36 3 72zM412 629q-24 -15 -111 -51.5t-105 -54.5q-35 28 -35 51q0 19 26 38.5t60 34.5t74.5 41.5t61.5 54.5q53 -29 53 -69
q0 -29 -24 -45z" />
    <glyph glyph-name="acircumflex" unicode="&#xe2;" horiz-adv-x="494" 
d="M128 314q-88 16 -88 75q0 40 57.5 68t138.5 28q105 0 155 -40t50 -133q0 -8 -1 -59t-1 -76q0 -115 19 -172q-44 -12 -78 -12q-72 0 -84 58q-24 -28 -61.5 -44.5t-75.5 -16.5q-55 0 -92.5 35.5t-37.5 105.5q0 56 22.5 82t61.5 39q76 24 180 30q0 61 -13.5 85.5t-56.5 24.5
q-25 0 -53.5 -21t-41.5 -57zM292 210q-30 -5 -46 -9t-34.5 -12.5t-26 -22t-7.5 -33.5q0 -25 12 -37.5t30 -12.5q42 0 70 25q-1 9 -1 30q0 36 3 72zM243 719q164 -90 164 -143q0 -17 -17.5 -34t-44.5 -23q-24 28 -50 50.5t-40 30.5l-14 8q-99 -81 -123 -81q-17 0 -28.5 7.5
t-27.5 30.5q82 89 181 154z" />
    <glyph glyph-name="atilde" unicode="&#xe3;" horiz-adv-x="494" 
d="M128 314q-88 16 -88 75q0 40 57.5 68t138.5 28q105 0 155 -40t50 -133q0 -8 -1 -59t-1 -76q0 -115 19 -172q-44 -12 -78 -12q-72 0 -84 58q-24 -28 -61.5 -44.5t-75.5 -16.5q-55 0 -92.5 35.5t-37.5 105.5q0 56 22.5 82t61.5 39q76 24 180 30q0 61 -13.5 85.5t-56.5 24.5
q-25 0 -53.5 -21t-41.5 -57zM292 210q-30 -5 -46 -9t-34.5 -12.5t-26 -22t-7.5 -33.5q0 -25 12 -37.5t30 -12.5q42 0 70 25q-1 9 -1 30q0 36 3 72zM426 634q0 -35 -40 -67.5t-88 -32.5q-24 0 -68 21.5t-61 21.5q-22 0 -68 -40q-39 14 -39 41q0 34 40.5 67t87.5 33
q24 0 68.5 -21.5t61.5 -21.5q23 0 67 40q13 -2 26 -13.5t13 -27.5z" />
    <glyph glyph-name="adieresis" unicode="&#xe4;" horiz-adv-x="494" 
d="M128 314q-88 16 -88 75q0 40 57.5 68t138.5 28q105 0 155 -40t50 -133q0 -8 -1 -59t-1 -76q0 -115 19 -172q-44 -12 -78 -12q-72 0 -84 58q-24 -28 -61.5 -44.5t-75.5 -16.5q-55 0 -92.5 35.5t-37.5 105.5q0 56 22.5 82t61.5 39q76 24 180 30q0 61 -13.5 85.5t-56.5 24.5
q-25 0 -53.5 -21t-41.5 -57zM292 210q-30 -5 -46 -9t-34.5 -12.5t-26 -22t-7.5 -33.5q0 -25 12 -37.5t30 -12.5q42 0 70 25q-1 9 -1 30q0 36 3 72zM352 520q-38 0 -64.5 26.5t-26.5 67.5q0 39 28 66t65 27t63.5 -27t26.5 -66q0 -40 -28 -67t-64 -27zM123 520
q-38 0 -64.5 26.5t-26.5 67.5q0 39 28 66t65 27t63.5 -27t26.5 -66q0 -40 -28 -67t-64 -27z" />
    <glyph glyph-name="aring" unicode="&#xe5;" horiz-adv-x="494" 
d="M128 314q-88 16 -88 75q0 40 57.5 68t138.5 28q105 0 155 -40t50 -133q0 -8 -1 -59t-1 -76q0 -115 19 -172q-44 -12 -78 -12q-72 0 -84 58q-24 -28 -61.5 -44.5t-75.5 -16.5q-55 0 -92.5 35.5t-37.5 105.5q0 56 22.5 82t61.5 39q76 24 180 30q0 61 -13.5 85.5t-56.5 24.5
q-25 0 -53.5 -21t-41.5 -57zM292 210q-30 -5 -46 -9t-34.5 -12.5t-26 -22t-7.5 -33.5q0 -25 12 -37.5t30 -12.5q42 0 70 25q-1 9 -1 30q0 36 3 72zM243 540q-51 0 -83.5 32t-32.5 84q0 53 32.5 85t83.5 32q52 0 83.5 -32t31.5 -85q0 -52 -31.5 -84t-83.5 -32zM297 651
q0 31 -15 51.5t-39 20.5q-25 0 -40 -17t-15 -45q0 -31 15 -51t40 -20q26 0 40 16.5t14 44.5z" />
    <glyph glyph-name="ae" unicode="&#xe6;" horiz-adv-x="752" 
d="M533 390q-36 0 -63 -32.5t-28 -95.5q28 2 39.5 3.5t33 6.5t31 13.5t17.5 24t8 38.5q0 16 -11 29t-27 13zM220 83q44 0 90 36q-17 40 -20 90q-39 -7 -59 -12.5t-36.5 -21.5t-16.5 -42q0 -25 12 -37.5t30 -12.5zM541 485q74 0 128 -37t54 -110q0 -148 -212 -148
q-19 0 -69 2q0 -57 28.5 -83t70.5 -26q74 0 115 48q23 -11 37.5 -29.5t14.5 -37.5q0 -30 -35.5 -48t-69 -22t-64.5 -4q-137 0 -204 87q-85 -87 -176 -87q-55 0 -92.5 35.5t-37.5 105.5q0 56 22.5 82t61.5 39q76 24 180 30q-1 62 -14 86t-56 24q-25 0 -53.5 -21t-41.5 -57
q-88 16 -88 75q0 40 57.5 68t138.5 28q112 0 157 -52q60 52 148 52z" />
    <glyph glyph-name="ccedilla" unicode="&#xe7;" horiz-adv-x="477" 
d="M281 85q31 0 58.5 15.5t37.5 42.5q45 -16 59 -31t14 -36q0 -41 -48 -63.5t-125 -22.5h-7q-4 -16 -4 -20q0 -11 14 -21t30.5 -19t30.5 -28.5t14 -45.5q0 -39 -46.5 -73.5t-113.5 -34.5q-35 0 -52.5 13t-17.5 32q0 27 25 54q13 -13 34 -13q30 0 30 38q0 20 -22.5 38
t-22.5 36q0 21 15 57q-73 22 -114 80t-41 144q0 66 22.5 117t58.5 81t78 45t85 15q63 0 120.5 -26t57.5 -72q0 -61 -98 -73q-9 34 -32 54t-51 20q-37 0 -64 -37.5t-27 -110.5q0 -155 102 -155z" />
    <glyph glyph-name="egrave" unicode="&#xe8;" horiz-adv-x="492" 
d="M281 485q74 0 128 -37t54 -110q0 -148 -212 -148q-19 0 -69 2q0 -57 28.5 -83t70.5 -26q74 0 115 48q23 -11 37.5 -29.5t14.5 -37.5q0 -30 -35.5 -48t-69 -22t-64.5 -4q-110 0 -180 60.5t-70 184.5q0 82 38.5 140.5t94 84t119.5 25.5zM273 390q-36 0 -63 -32.5t-28 -95.5
q28 2 39.5 3.5t33 6.5t31 13.5t17.5 24t8 38.5q0 16 -11 29t-27 13zM116 755q20 -26 56 -53t65 -44.5t51.5 -39t22.5 -40.5q0 -27 -39 -55q-37 27 -98.5 58.5t-93 54t-31.5 48.5q0 39 67 71z" />
    <glyph glyph-name="eacute" unicode="&#xe9;" horiz-adv-x="492" 
d="M281 485q74 0 128 -37t54 -110q0 -148 -212 -148q-19 0 -69 2q0 -57 28.5 -83t70.5 -26q74 0 115 48q23 -11 37.5 -29.5t14.5 -37.5q0 -30 -35.5 -48t-69 -22t-64.5 -4q-110 0 -180 60.5t-70 184.5q0 82 38.5 140.5t94 84t119.5 25.5zM273 390q-36 0 -63 -32.5t-28 -95.5
q28 2 39.5 3.5t33 6.5t31 13.5t17.5 24t8 38.5q0 16 -11 29t-27 13zM415 629q-24 -15 -111 -51.5t-105 -54.5q-35 28 -35 51q0 19 26 38.5t60 34.5t74.5 41.5t61.5 54.5q53 -29 53 -69q0 -29 -24 -45z" />
    <glyph glyph-name="ecircumflex" unicode="&#xea;" horiz-adv-x="492" 
d="M281 485q74 0 128 -37t54 -110q0 -148 -212 -148q-19 0 -69 2q0 -57 28.5 -83t70.5 -26q74 0 115 48q23 -11 37.5 -29.5t14.5 -37.5q0 -30 -35.5 -48t-69 -22t-64.5 -4q-110 0 -180 60.5t-70 184.5q0 82 38.5 140.5t94 84t119.5 25.5zM273 390q-36 0 -63 -32.5t-28 -95.5
q28 2 39.5 3.5t33 6.5t31 13.5t17.5 24t8 38.5q0 16 -11 29t-27 13zM246 719q164 -90 164 -143q0 -17 -17.5 -34t-44.5 -23q-24 28 -50 50.5t-40 30.5l-14 8q-99 -81 -123 -81q-17 0 -28.5 7.5t-27.5 30.5q82 89 181 154z" />
    <glyph glyph-name="edieresis" unicode="&#xeb;" horiz-adv-x="492" 
d="M281 485q74 0 128 -37t54 -110q0 -148 -212 -148q-19 0 -69 2q0 -57 28.5 -83t70.5 -26q74 0 115 48q23 -11 37.5 -29.5t14.5 -37.5q0 -30 -35.5 -48t-69 -22t-64.5 -4q-110 0 -180 60.5t-70 184.5q0 82 38.5 140.5t94 84t119.5 25.5zM273 390q-36 0 -63 -32.5t-28 -95.5
q28 2 39.5 3.5t33 6.5t31 13.5t17.5 24t8 38.5q0 16 -11 29t-27 13zM355 520q-38 0 -64.5 26.5t-26.5 67.5q0 39 28 66t65 27t63.5 -27t26.5 -66q0 -40 -28 -67t-64 -27zM126 520q-38 0 -64.5 26.5t-26.5 67.5q0 39 28 66t65 27t63.5 -27t26.5 -66q0 -40 -28 -67t-64 -27z
" />
    <glyph glyph-name="igrave" unicode="&#xec;" horiz-adv-x="257" 
d="M130 478q38 0 59 -13t21 -51q0 -6 -3.5 -88t-3.5 -123q0 -142 17 -193q-42 -13 -83 -13q-47 0 -65.5 16.5t-18.5 48.5q0 16 1.5 75t1.5 94q0 143 -7 234q38 13 81 13zM4 755q20 -26 56 -53t65 -44.5t51.5 -39t22.5 -40.5q0 -27 -39 -55q-37 27 -98.5 58.5t-93 54
t-31.5 48.5q0 39 67 71z" />
    <glyph glyph-name="iacute" unicode="&#xed;" horiz-adv-x="257" 
d="M130 478q38 0 59 -13t21 -51q0 -6 -3.5 -88t-3.5 -123q0 -142 17 -193q-42 -13 -83 -13q-47 0 -65.5 16.5t-18.5 48.5q0 16 1.5 75t1.5 94q0 143 -7 234q38 13 81 13zM303 629q-24 -15 -111 -51.5t-105 -54.5q-35 28 -35 51q0 19 26 38.5t60 34.5t74.5 41.5t61.5 54.5
q53 -29 53 -69q0 -29 -24 -45z" />
    <glyph glyph-name="icircumflex" unicode="&#xee;" horiz-adv-x="257" 
d="M130 478q38 0 59 -13t21 -51q0 -6 -3.5 -88t-3.5 -123q0 -142 17 -193q-42 -13 -83 -13q-47 0 -65.5 16.5t-18.5 48.5q0 16 1.5 75t1.5 94q0 143 -7 234q38 13 81 13zM134 719q164 -90 164 -143q0 -17 -17.5 -34t-44.5 -23q-24 28 -50 50.5t-40 30.5l-14 8
q-99 -81 -123 -81q-17 0 -28.5 7.5t-27.5 30.5q82 89 181 154z" />
    <glyph glyph-name="idieresis" unicode="&#xef;" horiz-adv-x="257" 
d="M130 478q38 0 59 -13t21 -51q0 -6 -3.5 -88t-3.5 -123q0 -142 17 -193q-42 -13 -83 -13q-47 0 -65.5 16.5t-18.5 48.5q0 16 1.5 75t1.5 94q0 143 -7 234q38 13 81 13zM243 520q-38 0 -64.5 26.5t-26.5 67.5q0 39 28 66t65 27t63.5 -27t26.5 -66q0 -40 -28 -67t-64 -27z
M14 520q-38 0 -64.5 26.5t-26.5 67.5q0 39 28 66t65 27t63.5 -27t26.5 -66q0 -40 -28 -67t-64 -27z" />
    <glyph glyph-name="eth" unicode="&#xf0;" horiz-adv-x="547" 
d="M76 630q-4 16 -4 31q0 20 13 28.5t46 8.5q81 0 157 -37l92 73q32 -30 32 -56q0 -17 -25 -36l-32 -24q75 -59 117.5 -152t42.5 -197q0 -120 -61 -199.5t-183 -79.5q-109 0 -175.5 66t-66.5 176t63.5 179t145.5 69q69 0 102 -32q-29 71 -68 111l-82 -61q-38 26 -38 53
q0 18 23 34q8 5 31 20q-53 25 -130 25zM363 218q0 76 -25 123.5t-68 47.5q-45 0 -69 -37.5t-24 -105.5q0 -69 25 -114.5t68 -45.5q44 0 68.5 36t24.5 96z" />
    <glyph glyph-name="ntilde" unicode="&#xf1;" horiz-adv-x="557" 
d="M39 465q41 13 78 13q73 0 83 -59q65 65 148 65q68 0 112 -39t44 -111q0 -2 -1.5 -72t-1.5 -106q0 -86 17 -146q-43 -13 -87 -13q-80 0 -80 61q0 36 3 132.5t3 116.5q0 41 -16.5 61.5t-42.5 20.5q-42 0 -93 -49q2 -128 2 -185q0 -88 5 -154q-33 -3 -59 -3q-100 0 -100 48
q0 4 2.5 70t2.5 137q0 163 -19 212zM461 634q0 -35 -40 -67.5t-88 -32.5q-24 0 -68 21.5t-61 21.5q-22 0 -68 -40q-39 14 -39 41q0 34 40.5 67t87.5 33q24 0 68.5 -21.5t61.5 -21.5q23 0 67 40q13 -2 26 -13.5t13 -27.5z" />
    <glyph glyph-name="ograve" unicode="&#xf2;" horiz-adv-x="543" 
d="M271 -10q-109 0 -175.5 66t-66.5 176q0 115 66.5 184t175.5 69t176 -69t67 -184q0 -110 -67 -176t-176 -66zM365 212q0 76 -25 126.5t-69 50.5q-43 0 -67.5 -41t-24.5 -108q0 -66 24.5 -109.5t67.5 -43.5q45 0 69.5 34.5t24.5 90.5zM141 755q20 -26 56 -53t65 -44.5
t51.5 -39t22.5 -40.5q0 -27 -39 -55q-37 27 -98.5 58.5t-93 54t-31.5 48.5q0 39 67 71z" />
    <glyph glyph-name="oacute" unicode="&#xf3;" horiz-adv-x="543" 
d="M271 -10q-109 0 -175.5 66t-66.5 176q0 115 66.5 184t175.5 69t176 -69t67 -184q0 -110 -67 -176t-176 -66zM365 212q0 76 -25 126.5t-69 50.5q-43 0 -67.5 -41t-24.5 -108q0 -66 24.5 -109.5t67.5 -43.5q45 0 69.5 34.5t24.5 90.5zM440 629q-24 -15 -111 -51.5
t-105 -54.5q-35 28 -35 51q0 19 26 38.5t60 34.5t74.5 41.5t61.5 54.5q53 -29 53 -69q0 -29 -24 -45z" />
    <glyph glyph-name="ocircumflex" unicode="&#xf4;" horiz-adv-x="543" 
d="M271 -10q-109 0 -175.5 66t-66.5 176q0 115 66.5 184t175.5 69t176 -69t67 -184q0 -110 -67 -176t-176 -66zM365 212q0 76 -25 126.5t-69 50.5q-43 0 -67.5 -41t-24.5 -108q0 -66 24.5 -109.5t67.5 -43.5q45 0 69.5 34.5t24.5 90.5zM271 719q164 -90 164 -143
q0 -17 -17.5 -34t-44.5 -23q-24 28 -50 50.5t-40 30.5l-14 8q-99 -81 -123 -81q-17 0 -28.5 7.5t-27.5 30.5q82 89 181 154z" />
    <glyph glyph-name="otilde" unicode="&#xf5;" horiz-adv-x="543" 
d="M271 -10q-109 0 -175.5 66t-66.5 176q0 115 66.5 184t175.5 69t176 -69t67 -184q0 -110 -67 -176t-176 -66zM365 212q0 76 -25 126.5t-69 50.5q-43 0 -67.5 -41t-24.5 -108q0 -66 24.5 -109.5t67.5 -43.5q45 0 69.5 34.5t24.5 90.5zM454 634q0 -35 -40 -67.5t-88 -32.5
q-24 0 -68 21.5t-61 21.5q-22 0 -68 -40q-39 14 -39 41q0 34 40.5 67t87.5 33q24 0 68.5 -21.5t61.5 -21.5q23 0 67 40q13 -2 26 -13.5t13 -27.5z" />
    <glyph glyph-name="odieresis" unicode="&#xf6;" horiz-adv-x="543" 
d="M271 -10q-109 0 -175.5 66t-66.5 176q0 115 66.5 184t175.5 69t176 -69t67 -184q0 -110 -67 -176t-176 -66zM365 212q0 76 -25 126.5t-69 50.5q-43 0 -67.5 -41t-24.5 -108q0 -66 24.5 -109.5t67.5 -43.5q45 0 69.5 34.5t24.5 90.5zM380 520q-38 0 -64.5 26.5t-26.5 67.5
q0 39 28 66t65 27t63.5 -27t26.5 -66q0 -40 -28 -67t-64 -27zM151 520q-38 0 -64.5 26.5t-26.5 67.5q0 39 28 66t65 27t63.5 -27t26.5 -66q0 -40 -28 -67t-64 -27z" />
    <glyph glyph-name="divide" unicode="&#xf7;" 
d="M282 -6q-32 0 -53.5 22t-21.5 56q0 32 22 54.5t53 22.5q30 0 51.5 -22.5t21.5 -54.5q0 -35 -21 -56.5t-52 -21.5zM510 260q0 -25 -14 -42.5t-37 -17.5q-17 0 -81.5 5.5t-94.5 5.5q-113 0 -216 -11q-4 21 -4 42q0 23 12.5 41.5t38.5 18.5q4 0 67.5 -5t109.5 -5
q144 0 213 10q6 -12 6 -42zM282 359q-32 0 -53.5 21.5t-21.5 56.5q0 32 22 54.5t53 22.5q30 0 51.5 -22.5t21.5 -54.5q0 -35 -21 -56.5t-52 -21.5z" />
    <glyph glyph-name="oslash" unicode="&#xf8;" horiz-adv-x="543" 
d="M271 -10q-53 0 -99 17l-19 -35q-22 -40 -28 -57q-46 5 -46 31q0 10 25 55l18 32q-93 66 -93 199q0 115 66.5 184t175.5 69q47 0 92 -16l20 37q10 18 28 57q46 -5 46 -31q0 -11 -22 -50l-21 -38q100 -69 100 -212q0 -110 -67 -176t-176 -66zM365 212q0 64 -18 110
l-121 -219q19 -16 45 -16q45 0 69.5 34.5t24.5 90.5zM271 389q-43 0 -67.5 -41t-24.5 -108q0 -46 12 -82l119 217q-17 14 -39 14z" />
    <glyph glyph-name="ugrave" unicode="&#xf9;" horiz-adv-x="553" 
d="M514 10q-49 -13 -84 -13q-32 0 -54.5 14.5t-24.5 42.5q-73 -64 -158 -64q-141 0 -141 141q0 3 1.5 73t1.5 105q0 104 -16 156q39 13 81 13q86 0 86 -61q0 -33 -3 -123t-3 -108q0 -48 15.5 -74t38.5 -26q51 0 95 47q-1 39 -1 121q0 116 -7 211q40 13 77 13q40 0 62 -12
t22 -50q0 -10 -2.5 -61t-3.5 -80v-72q0 -127 18 -193zM146 755q20 -26 56 -53t65 -44.5t51.5 -39t22.5 -40.5q0 -27 -39 -55q-37 27 -98.5 58.5t-93 54t-31.5 48.5q0 39 67 71z" />
    <glyph glyph-name="uacute" unicode="&#xfa;" horiz-adv-x="553" 
d="M514 10q-49 -13 -84 -13q-32 0 -54.5 14.5t-24.5 42.5q-73 -64 -158 -64q-141 0 -141 141q0 3 1.5 73t1.5 105q0 104 -16 156q39 13 81 13q86 0 86 -61q0 -33 -3 -123t-3 -108q0 -48 15.5 -74t38.5 -26q51 0 95 47q-1 39 -1 121q0 116 -7 211q40 13 77 13q40 0 62 -12
t22 -50q0 -10 -2.5 -61t-3.5 -80v-72q0 -127 18 -193zM445 629q-24 -15 -111 -51.5t-105 -54.5q-35 28 -35 51q0 19 26 38.5t60 34.5t74.5 41.5t61.5 54.5q53 -29 53 -69q0 -29 -24 -45z" />
    <glyph glyph-name="ucircumflex" unicode="&#xfb;" horiz-adv-x="553" 
d="M514 10q-49 -13 -84 -13q-32 0 -54.5 14.5t-24.5 42.5q-73 -64 -158 -64q-141 0 -141 141q0 3 1.5 73t1.5 105q0 104 -16 156q39 13 81 13q86 0 86 -61q0 -33 -3 -123t-3 -108q0 -48 15.5 -74t38.5 -26q51 0 95 47q-1 39 -1 121q0 116 -7 211q40 13 77 13q40 0 62 -12
t22 -50q0 -10 -2.5 -61t-3.5 -80v-72q0 -127 18 -193zM276 719q164 -90 164 -143q0 -17 -17.5 -34t-44.5 -23q-24 28 -50 50.5t-40 30.5l-14 8q-99 -81 -123 -81q-17 0 -28.5 7.5t-27.5 30.5q82 89 181 154z" />
    <glyph glyph-name="udieresis" unicode="&#xfc;" horiz-adv-x="553" 
d="M514 10q-49 -13 -84 -13q-32 0 -54.5 14.5t-24.5 42.5q-73 -64 -158 -64q-141 0 -141 141q0 3 1.5 73t1.5 105q0 104 -16 156q39 13 81 13q86 0 86 -61q0 -33 -3 -123t-3 -108q0 -48 15.5 -74t38.5 -26q51 0 95 47q-1 39 -1 121q0 116 -7 211q40 13 77 13q40 0 62 -12
t22 -50q0 -10 -2.5 -61t-3.5 -80v-72q0 -127 18 -193zM156 520q-38 0 -64.5 26.5t-26.5 67.5q0 39 28 66t65 27t63.5 -27t26.5 -66q0 -40 -28 -67t-64 -27zM385 520q-38 0 -64.5 26.5t-26.5 67.5q0 39 28 66t65 27t63.5 -27t26.5 -66q0 -40 -28 -67t-64 -27z" />
    <glyph glyph-name="yacute" unicode="&#xfd;" horiz-adv-x="507" 
d="M412 485q75 0 75 -50q0 -47 -35.5 -159.5t-84.5 -216.5q-70 -147 -151 -264q-30 -45 -70 -45q-51 0 -98 61q84 63 156 177q-135 374 -204 441q65 51 112 51q23 0 36.5 -10t23.5 -32q16 -35 48 -144t50 -191q27 82 49.5 180t22.5 141q0 24 -3 46q34 15 73 15zM434 629
q-24 -15 -111 -51.5t-105 -54.5q-35 28 -35 51q0 19 26 38.5t60 34.5t74.5 41.5t61.5 54.5q53 -29 53 -69q0 -29 -24 -45z" />
    <glyph glyph-name="thorn" unicode="&#xfe;" horiz-adv-x="533" 
d="M120 743q38 0 59 -13t21 -51q0 -6 -3.5 -88t-3.5 -123v-51q44 68 128 68q86 0 134.5 -63.5t48.5 -162.5q0 -66 -19.5 -125t-66.5 -101.5t-114 -42.5q-66 0 -113 44q0 -6 0.5 -54t1 -66.5t2.5 -55t6 -61t10 -42.5q-34 -8 -76 -8q-54 0 -73 13t-19 44q0 98 1.5 243t1.5 202
v247q0 143 -7 234q38 13 81 13zM193 340v-232q33 -23 80 -23q40 0 59.5 47.5t19.5 111.5q0 74 -19 109.5t-49 35.5q-50 0 -91 -49z" />
    <glyph glyph-name="ydieresis" unicode="&#xff;" horiz-adv-x="507" 
d="M412 485q75 0 75 -50q0 -47 -35.5 -159.5t-84.5 -216.5q-70 -147 -151 -264q-30 -45 -70 -45q-51 0 -98 61q84 63 156 177q-135 374 -204 441q65 51 112 51q23 0 36.5 -10t23.5 -32q16 -35 48 -144t50 -191q27 82 49.5 180t22.5 141q0 24 -3 46q34 15 73 15zM369 520
q-38 0 -64.5 26.5t-26.5 67.5q0 39 28 66t65 27t63.5 -27t26.5 -66q0 -40 -28 -67t-64 -27zM140 520q-38 0 -64.5 26.5t-26.5 67.5q0 39 28 66t65 27t63.5 -27t26.5 -66q0 -40 -28 -67t-64 -27z" />
    <glyph glyph-name="dotlessi" unicode="&#x131;" horiz-adv-x="257" 
d="M130 478q38 0 59 -13t21 -51q0 -6 -3.5 -88t-3.5 -123q0 -142 17 -193q-42 -13 -83 -13q-47 0 -65.5 16.5t-18.5 48.5q0 16 1.5 75t1.5 94q0 143 -7 234q38 13 81 13z" />
    <glyph glyph-name="Lslash" unicode="&#x141;" horiz-adv-x="526" 
d="M14 186q-43 18 -43 46q0 17 15 29l84 64v106q0 110 -9 227q38 8 79 8q38 0 64.5 -13t26.5 -41q0 -9 -3 -67t-4 -99q45 37 98 84q44 -16 44 -45q0 -16 -15 -30l-127 -99v-145q0 -77 8 -109q44 -2 72 -2q163 0 210 23q12 -30 12 -69q0 -34 -26.5 -45t-105.5 -11
q-239 0 -277 2q-29 1 -39 14t-10 43q0 34 1 90.5t1 76.5v11q-9 -8 -28 -25t-28 -24z" />
    <glyph glyph-name="lslash" unicode="&#x142;" horiz-adv-x="281" 
d="M139 743q38 0 59 -13t21 -51q0 -6 -3.5 -88t-3.5 -123v-6l85 73q32 -16 32 -38q0 -14 -15 -25l-102 -78v-200q0 -132 17 -184q-42 -13 -83 -13q-47 0 -65.5 16.5t-18.5 48.5q0 16 1.5 70t1.5 88v59q-8 -7 -35 -30.5t-43 -36.5q-32 19 -32 39q0 12 15 24l95 72v149
q0 143 -7 234q38 13 81 13z" />
    <glyph glyph-name="OE" unicode="&#x152;" horiz-adv-x="933" 
d="M363 -10q-151 0 -241 93t-90 248q0 157 89.5 249.5t241.5 92.5q45 0 90 -16q123 9 254 9q144 0 187 -16q19 -7 19 -40q0 -39 -12 -68q-66 21 -223 21q-20 0 -70 -2q4 -32 4 -154h79q64 0 118 6q6 -13 6 -42q0 -37 -17 -51.5t-61 -14.5h-125q0 -169 8 -203q44 -2 71 -2
q163 0 210 23q12 -30 12 -69q0 -34 -26.5 -45t-105.5 -11q-239 0 -277 2q-27 2 -36 11q-53 -21 -105 -21zM457 224v200q0 60 -3 115q-40 33 -90 33q-78 0 -124 -59t-46 -151q0 -70 15.5 -128.5t55 -100.5t97.5 -42q55 0 94 28q0 15 0.5 50.5t0.5 54.5z" />
    <glyph glyph-name="oe" unicode="&#x153;" horiz-adv-x="828" 
d="M609 390q-36 0 -63 -32.5t-28 -95.5q28 2 39.5 3.5t33 6.5t31 13.5t17.5 24t8 38.5q0 16 -11 29t-27 13zM365 212q0 76 -25 126.5t-69 50.5q-43 0 -67.5 -41t-24.5 -108q0 -66 24.5 -109.5t67.5 -43.5q45 0 69.5 34.5t24.5 90.5zM617 485q74 0 128 -37t54 -110
q0 -148 -212 -148q-19 0 -69 2q0 -57 28.5 -83t70.5 -26q74 0 115 48q23 -11 37.5 -29.5t14.5 -37.5q0 -30 -35.5 -48t-69 -22t-64.5 -4q-114 0 -177 68q-61 -68 -167 -68q-109 0 -175.5 66t-66.5 176q0 115 66.5 184t175.5 69t171 -74q67 74 175 74z" />
    <glyph glyph-name="Scaron" unicode="&#x160;" horiz-adv-x="547" 
d="M419 498q-16 29 -59 50.5t-83 21.5q-33 0 -53.5 -17.5t-20.5 -53.5q0 -32 23.5 -54t58 -32.5t75.5 -26.5t75.5 -34t58 -56t23.5 -92q0 -59 -22.5 -102t-61.5 -66.5t-83.5 -34.5t-95.5 -11q-92 0 -158.5 26t-66.5 68q0 31 17 50t58 41q25 -35 75 -58.5t97 -23.5
q40 0 65 19t25 59q0 38 -32.5 61t-78.5 37t-92 33.5t-78.5 64.5t-32.5 116q0 51 22 89t59.5 59.5t82 31.5t96.5 10q82 0 141 -24t59 -67q0 -26 -24.5 -49t-68.5 -35zM293 712q-54 29 -110 74t-56 68q0 33 57 62q19 -24 46.5 -47t45.5 -34l19 -11q37 33 53.5 46t35 23.5
t31.5 10.5q24 0 59 -38q-82 -89 -181 -154z" />
    <glyph glyph-name="scaron" unicode="&#x161;" horiz-adv-x="436" 
d="M308 324q-8 31 -28 48t-44 17q-23 0 -39 -12t-16 -35q0 -24 23.5 -38t57 -22.5t67 -21t57 -41.5t23.5 -74q0 -76 -60.5 -115.5t-142.5 -39.5q-26 0 -51 2.5t-57.5 10t-52 26t-19.5 45.5q0 54 81 84q10 -36 38 -54t59 -18q67 0 67 48q0 23 -35.5 37.5t-77.5 24t-77.5 43
t-35.5 89.5q0 71 60.5 114t136.5 43q35 0 70.5 -7.5t64.5 -29t29 -52.5q0 -27 -24.5 -46.5t-73.5 -25.5zM237 519q-54 29 -110 74t-56 68q0 33 57 62q19 -24 46.5 -47t45.5 -34l19 -11q37 33 53.5 46t35 23.5t31.5 10.5q24 0 59 -38q-82 -89 -181 -154z" />
    <glyph glyph-name="Ydieresis" unicode="&#x178;" horiz-adv-x="565" 
d="M298 391q35 54 76.5 151.5t42.5 130.5q144 -15 144 -75q0 -9 -6.5 -24.5t-21 -38.5t-27.5 -42.5t-36.5 -51.5t-35.5 -48t-38 -50t-32 -42v-98q0 -112 24 -192q-37 -14 -91 -14q-20 0 -33 2.5t-27.5 10t-21.5 26t-7 47.5q0 19 1 71.5t1 76.5v63q-146 275 -217 306
q51 69 107 69t92 -63q31 -56 106 -215zM408 713q-38 0 -64.5 26.5t-26.5 67.5q0 39 28 66t65 27t63.5 -27t26.5 -66q0 -41 -28 -67.5t-64 -26.5zM179 713q-38 0 -64.5 26.5t-26.5 67.5q0 39 28 66t65 27t63.5 -27t26.5 -66q0 -41 -28 -67.5t-64 -26.5z" />
    <glyph glyph-name="Zcaron" unicode="&#x17d;" horiz-adv-x="567" 
d="M537 648q17 -17 17 -38q0 -23 -22 -54q-136 -184 -224 -300t-108 -140l-20 -23q45 0 70 1q167 6 272 32q19 -43 19 -73q0 -46 -80 -53q-66 -6 -172 -6q-155 0 -254 12q-18 22 -18 46q0 26 26 64q283 395 333 451q-48 0 -79 -1q-152 -6 -239 -27q-21 44 -21 72q0 15 9 29
t26 17q44 10 155 10q189 0 310 -19zM305 712q-54 29 -110 74t-56 68q0 33 57 62q19 -24 46.5 -47t45.5 -34l19 -11q37 33 53.5 46t35 23.5t31.5 10.5q24 0 59 -38q-82 -89 -181 -154z" />
    <glyph glyph-name="zcaron" unicode="&#x17e;" horiz-adv-x="494" 
d="M380 1q-56 -7 -146 -7q-121 0 -201 12q-17 21 -17 51t22 52l261 272q-30 2 -45 2q-103 0 -209 -32q-9 32 -9 62q2 35 31 46q29 12 112 12q155 0 260 -20q16 -16 16 -46q0 -29 -17 -46l-265 -280h7q101 0 249 40q12 -30 12 -59q0 -21 -9.5 -34t-20.5 -17t-31 -8zM255 519
q-54 29 -110 74t-56 68q0 33 57 62q19 -24 46.5 -47t45.5 -34l19 -11q37 33 53.5 46t35 23.5t31.5 10.5q24 0 59 -38q-82 -89 -181 -154z" />
    <glyph glyph-name="florin" unicode="&#x192;" 
d="M331 362l-12 -232q-3 -57 -14 -99t-34.5 -78t-66 -54.5t-102.5 -18.5q-105 0 -105 54q0 27 24.5 48.5t73.5 26.5q8 -47 29 -47q24 0 32 28t13 93l18 283l-72 -5q-5 13 -5 22q0 33 45 36l36 2q5 67 26.5 117.5t53.5 79t69 42.5t78 14q118 0 118 -60q0 -56 -103 -74
q-9 47 -37 47q-32 0 -43.5 -29t-15.5 -87l-3 -42q98 8 137 14q6 -12 6 -32q0 -31 -18.5 -40.5t-56.5 -9.5q-47 0 -71 1z" />
    <glyph glyph-name="circumflex" unicode="&#x2c6;" horiz-adv-x="349" 
d="M180 719q164 -90 164 -143q0 -17 -17.5 -34t-44.5 -23q-24 28 -50 50.5t-40 30.5l-14 8q-99 -81 -123 -81q-17 0 -28.5 7.5t-27.5 30.5q82 89 181 154z" />
    <glyph glyph-name="caron" unicode="&#x2c7;" horiz-adv-x="351" 
d="M183 519q-54 29 -110 74t-56 68q0 33 57 62q19 -24 46.5 -47t45.5 -34l19 -11q37 33 53.5 46t35 23.5t31.5 10.5q24 0 59 -38q-82 -89 -181 -154z" />
    <glyph glyph-name="breve" unicode="&#x2d8;" horiz-adv-x="352" 
d="M176 639q38 0 58 21.5t31 66.5q87 -4 87 -50t-49.5 -94.5t-126.5 -48.5t-126.5 48.5t-49.5 94.5t87 50q11 -45 31 -66.5t58 -21.5z" />
    <glyph glyph-name="dotaccent" unicode="&#x2d9;" horiz-adv-x="183" 
d="M91 520q-38 0 -64.5 26.5t-26.5 67.5q0 39 28 66t65 27t63.5 -27t26.5 -66q0 -40 -28 -67t-64 -27z" />
    <glyph glyph-name="ring" unicode="&#x2da;" horiz-adv-x="231" 
d="M126 540q-51 0 -83.5 32t-32.5 84q0 53 32.5 85t83.5 32q52 0 83.5 -32t31.5 -85q0 -52 -31.5 -84t-83.5 -32zM180 651q0 31 -15 51.5t-39 20.5q-25 0 -40 -17t-15 -45q0 -31 15 -51t40 -20q26 0 40 16.5t14 44.5z" />
    <glyph glyph-name="ogonek" unicode="&#x2db;" horiz-adv-x="445" 
d="M274 15l77 -8q-45 -23 -71.5 -60.5t-26.5 -68.5q0 -36 29 -36q15 0 32.5 10.5t28.5 26.5q47 -25 47 -54q0 -31 -36.5 -47.5t-87.5 -16.5q-66 0 -102 28.5t-36 71.5q0 45 38 87.5t108 66.5z" />
    <glyph glyph-name="tilde" unicode="&#x2dc;" horiz-adv-x="364" 
d="M364 644q0 -35 -40 -67.5t-88 -32.5q-24 0 -68 21.5t-61 21.5q-22 0 -68 -40q-39 14 -39 41q0 34 40.5 67t87.5 33q24 0 68.5 -21.5t61.5 -21.5q23 0 67 40q13 -2 26 -13.5t13 -27.5z" />
    <glyph glyph-name="hungarumlaut" unicode="&#x2dd;" horiz-adv-x="501" 
d="M463 632q-26 -19 -92 -57.5t-81 -51.5q-42 23 -42 48q0 19 20.5 34.5t68.5 51t93 83.5q62 -29 62 -66q0 -25 -29 -42zM220 632q-26 -19 -92 -57.5t-81 -51.5q-42 23 -42 48q0 19 20.5 34.5t68.5 51t93 83.5q62 -29 62 -66q0 -25 -29 -42z" />
    <glyph glyph-name="pi" unicode="&#x3c0;" horiz-adv-x="575" 
d="M104 383q-50 -2 -87 -18q-11 22 -11 49t13.5 45t41.5 18l39 -1q38 0 117.5 -0.5t179.5 -0.5q106 0 156 19q9 -25 9 -49q0 -63 -53 -63h-47q-6 -111 -6 -213v-22q0 -84 18 -137q-35 -13 -83 -13q-84 0 -84 63q0 14 1.5 80t1.5 104q0 104 1 140h-63v-140q0 -38 1.5 -100
t1.5 -76q0 -17 -2 -27t-9 -21.5t-24.5 -17t-45.5 -5.5q-48 0 -74 13q15 46 15 128q0 58 -1.5 114.5t-3.5 91t-2 39.5z" />
    <glyph glyph-name="endash" unicode="&#x2013;" horiz-adv-x="595" 
d="M565 272q0 -30 -20.5 -48t-54.5 -18q-22 0 -80.5 3.5t-90.5 3.5h-106q-79 0 -176 -16q-7 35 -7 57q0 27 18 46.5t57 19.5q13 0 72.5 -3t95.5 -3h119q89 0 163 15q10 -30 10 -57z" />
    <glyph glyph-name="emdash" unicode="&#x2014;" horiz-adv-x="878" 
d="M848 272q0 -30 -20.5 -48t-54.5 -18q-22 0 -80.5 3.5t-90.5 3.5h-389q-79 0 -176 -16q-7 35 -7 57q0 27 18 46.5t57 19.5q13 0 71 -3t94 -3h405q89 0 163 15q10 -30 10 -57z" />
    <glyph glyph-name="quoteleft" unicode="&#x2018;" horiz-adv-x="229" 
d="M196 520q0 -35 -24.5 -57t-64.5 -22q-45 0 -69.5 32t-24.5 81q0 70 46 128t119 58q37 0 37 -39q0 -5 -2 -21h-5q-27 0 -47 -21.5t-20 -45.5q0 -41 45 -48q10 -21 10 -45z" />
    <glyph glyph-name="quoteright" unicode="&#x2019;" horiz-adv-x="279" 
d="M51 661q0 35 24.5 57t64.5 22q45 0 69.5 -32t24.5 -81q0 -70 -46 -128t-119 -58q-37 0 -37 39q0 5 2 21h5q27 0 47 21.5t20 45.5q0 41 -45 48q-10 21 -10 45z" />
    <glyph glyph-name="quotesinglbase" unicode="&#x201a;" horiz-adv-x="252" 
d="M52 57q0 35 24.5 57t64.5 22q45 0 69.5 -32t24.5 -81q0 -70 -46 -128t-119 -58q-37 0 -37 39q0 5 2 21h5q27 0 47 21.5t20 45.5q0 41 -45 48q-10 21 -10 45z" />
    <glyph glyph-name="quotedblleft" unicode="&#x201c;" horiz-adv-x="505" 
d="M202 520q0 -35 -24.5 -57t-64.5 -22q-45 0 -69.5 32t-24.5 81q0 70 46 128t119 58q37 0 37 -39q0 -5 -2 -21h-5q-27 0 -47 -21.5t-20 -45.5q0 -41 45 -48q10 -21 10 -45zM460 520q0 -35 -24.5 -57t-64.5 -22q-45 0 -69.5 32t-24.5 81q0 70 46 128t119 58q37 0 37 -39
q0 -5 -2 -21h-5q-27 0 -47 -21.5t-20 -45.5q0 -41 45 -48q10 -21 10 -45z" />
    <glyph glyph-name="quotedblright" unicode="&#x201d;" horiz-adv-x="533" 
d="M67 661q0 35 24.5 57t64.5 22q45 0 69.5 -32t24.5 -81q0 -70 -46 -128t-119 -58q-37 0 -37 39q0 5 2 21h5q27 0 47 21.5t20 45.5q0 41 -45 48q-10 21 -10 45zM320 661q0 35 24.5 57t64.5 22q45 0 69.5 -32t24.5 -81q0 -70 -46 -128t-119 -58q-37 0 -37 39q0 5 2 21h5
q27 0 47 21.5t20 45.5q0 41 -45 48q-10 21 -10 45z" />
    <glyph glyph-name="quotedblbase" unicode="&#x201e;" horiz-adv-x="504" 
d="M36 57q0 35 24.5 57t64.5 22q45 0 69.5 -32t24.5 -81q0 -70 -46 -128t-119 -58q-37 0 -37 39q0 5 2 21h5q27 0 47 21.5t20 45.5q0 41 -45 48q-10 21 -10 45zM289 57q0 35 24.5 57t64.5 22q45 0 69.5 -32t24.5 -81q0 -70 -46 -128t-119 -58q-37 0 -37 39q0 5 2 21h5
q27 0 47 21.5t20 45.5q0 41 -45 48q-10 21 -10 45z" />
    <glyph glyph-name="dagger" unicode="&#x2020;" horiz-adv-x="507" 
d="M184 513q0 13 -13 154q42 6 84 6q37 0 82 -6q-12 -136 -13 -154q69 1 144 24q9 -29 9 -56q0 -71 -58 -71q-17 0 -46 3t-50 3q3 -156 7.5 -253.5t7.5 -130t3 -41.5q0 -17 -22 -41.5t-44 -39.5l-22 -16q-10 7 -24 17.5t-38 36.5t-24 43q0 9 3 41.5t7.5 130t7.5 254.5
q-38 -1 -86 -6t-65 -6q-5 23 -5 48q0 73 55 73q14 0 48.5 -6t51.5 -7z" />
    <glyph glyph-name="daggerdbl" unicode="&#x2021;" horiz-adv-x="506" 
d="M325 150q37 1 83 6t64 6q5 -23 5 -48q0 -73 -55 -73q-14 0 -48.5 6t-51.5 7q0 -13 13 -154q-42 -6 -84 -6q-37 0 -82 6q12 136 13 154q-69 -1 -144 -24q-9 29 -9 56q0 71 58 71q17 0 46 -3t50 -3q-13 127 -13 133q0 10 15 133q-38 -1 -86 -6t-65 -6q-5 23 -5 48
q0 73 55 73q14 0 48.5 -6t51.5 -7q0 13 -13 154q42 6 84 6q37 0 82 -6q-12 -136 -13 -154q69 1 144 24q9 -29 9 -56q0 -71 -58 -71q-17 0 -46 3t-50 3q15 -120 15 -132q0 -7 -13 -134z" />
    <glyph glyph-name="bullet" unicode="&#x2022;" horiz-adv-x="344" 
d="M173 106q-65 0 -111 45.5t-46 116.5q0 69 46.5 116.5t110.5 47.5t109.5 -47.5t45.5 -116.5q0 -71 -45 -116.5t-110 -45.5z" />
    <glyph glyph-name="ellipsis" unicode="&#x2026;" horiz-adv-x="914" 
d="M118 -10q-38 0 -64.5 26.5t-26.5 67.5q0 39 28 66t65 27t63.5 -27t26.5 -66q0 -40 -28 -67t-64 -27zM458 -10q-38 0 -64.5 26.5t-26.5 67.5q0 39 28 66t65 27t63.5 -27t26.5 -66q0 -40 -28 -67t-64 -27zM796 -10q-38 0 -64.5 26.5t-26.5 67.5q0 39 28 66t65 27t63.5 -27
t26.5 -66q0 -40 -28 -67t-64 -27z" />
    <glyph glyph-name="perthousand" unicode="&#x2030;" horiz-adv-x="1308" 
d="M1105 -10q-79 0 -125.5 45t-46.5 121q0 77 46.5 121.5t125.5 44.5q78 0 124 -45t46 -121t-46 -121t-124 -45zM1157 149q0 39 -13.5 69.5t-38.5 30.5q-24 0 -39.5 -23t-15.5 -58q0 -41 14 -72.5t40 -31.5q24 0 38.5 24t14.5 61zM680 -10q-79 0 -125.5 45t-46.5 121
q0 77 46.5 121.5t125.5 44.5q78 0 124 -45t46 -121t-46 -121t-124 -45zM732 149q0 39 -13.5 69.5t-38.5 30.5q-24 0 -39.5 -23t-15.5 -58q0 -41 14 -72.5t40 -31.5q24 0 38.5 24t14.5 61zM218 44l233 369q103 162 171 286q25 -1 45 -14t20 -32q0 -15 -10 -30l-233 -370
q-91 -144 -172 -286q-62 13 -66 43q0 17 12 34zM204 333q-79 0 -125.5 45t-46.5 121q0 77 46.5 121.5t125.5 44.5q78 0 124 -45t46 -121t-46 -121t-124 -45zM256 492q0 39 -13.5 69.5t-38.5 30.5q-24 0 -39.5 -23t-15.5 -58q0 -41 14 -72.5t40 -31.5q24 0 38.5 24t14.5 61z
" />
    <glyph glyph-name="guilsinglleft" unicode="&#x2039;" horiz-adv-x="320" 
d="M182 235q33 -40 66 -90t33 -65q0 -30 -71 -56q-75 63 -184 211q110 151 183 211q44 -20 57.5 -33.5t13.5 -28.5q0 -14 -31.5 -60.5t-66.5 -88.5z" />
    <glyph glyph-name="guilsinglright" unicode="&#x203a;" horiz-adv-x="320" 
d="M125 235q-35 42 -66.5 88.5t-31.5 60.5q0 15 13.5 28.5t57.5 33.5q73 -60 183 -211q-109 -148 -184 -211q-71 26 -71 56q0 15 33 65t66 90z" />
    <glyph glyph-name="fraction" unicode="&#x2044;" horiz-adv-x="349" 
d="M-57 -38l235 474q98 197 142 303q26 0 48 -11.5t22 -32.5q0 -9 -30 -70l-30 -61.5t-20.5 -41t-54 -107t-111.5 -222.5q-96 -195 -140 -302q-29 0 -49.5 11t-20.5 32q0 12 9 28z" />
    <glyph glyph-name="Euro" unicode="&#x20ac;" 
d="M547 542q-50 37 -115 37q-74 0 -117 -47.5t-57 -121.5h33q144 0 232 8l3 -22q0 -41 -39 -41h-235q-1 -8 -1 -23q0 -21 1 -32h39q144 0 232 8l3 -22q0 -41 -39 -41h-226q16 -69 56 -112.5t107 -43.5q56 0 114 41q21 -15 34 -35t13 -35q0 -36 -44.5 -52.5t-105.5 -16.5
q-136 0 -219.5 68.5t-106.5 184.5q-41 -2 -78 -7q-5 17 -5 25q0 38 39 38h36q-1 11 -1 34v20q-25 -1 -69 -7q-5 17 -5 25q0 38 39 38h41q22 119 108 191t221 72q150 0 150 -59q0 -44 -38 -72z" />
    <glyph glyph-name="trademark" unicode="&#x2122;" horiz-adv-x="938" 
d="M883 552v-150q0 -63 12 -105q-26 -7 -52 -7q-68 0 -68 40q0 19 0.5 62.5t0.5 90.5q-29 -79 -56 -188q-28 -5 -55 -5q-55 0 -63 24q-9 28 -21 66.5t-21 65.5t-17 45v-89q0 -63 12 -105q-21 -7 -47 -7q-58 0 -58 40v31.5t0.5 74.5t0.5 120q0 49 -9 94q30 6 65 6
q53 0 73 -37q40 -78 82 -214q36 121 82 215q9 17 33 26.5t51 9.5q40 0 64 -8q-9 -38 -9 -96zM104 652h148q101 0 133 3q8 -13 8 -32q0 -20 -9 -34.5t-28 -14.5h-73v-169q0 -66 13 -104q-31 -10 -61 -10q-60 0 -60 49v234q-71 0 -103 -4q-7 18 -7 35q0 47 39 47z" />
    <glyph glyph-name="Omega" unicode="&#x2126;" horiz-adv-x="861" 
d="M431 678q144 0 242 -85.5t98 -221.5q0 -99 -51 -164t-148 -113h162q22 31 53 97q10 4 17 4q28 0 28 -23q0 -37 -27 -172h-252q-73 0 -73 66q0 12 2 34q124 88 124 261q-1 107 -46 166.5t-130 59.5q-84 0 -129.5 -60t-46.5 -166q0 -173 125 -261q3 -15 3 -34
q0 -66 -74 -66h-251q-7 32 -17.5 95t-10.5 77q0 23 29 23q6 0 16 -4q37 -75 53 -97h163q-99 48 -150 113t-51 164q0 136 98.5 221.5t243.5 85.5z" />
    <glyph glyph-name="partialdiff" unicode="&#x2202;" horiz-adv-x="531" 
d="M268 326q-36 0 -60.5 -46t-24.5 -112q0 -36 12 -59t35 -23q51 0 79 56.5t32 133.5q-36 50 -73 50zM97 555q-17 44 -17 66q0 52 91 52q39 0 80 -10t85.5 -35.5t78 -64t55.5 -100.5t22 -140q0 -62 -15 -119t-45 -106t-83 -78.5t-122 -29.5q-95 0 -145 56t-50 136
q0 105 51.5 172t127.5 67q68 0 132 -55q-2 98 -38.5 152.5t-102.5 54.5q-44 0 -105 -18z" />
    <glyph glyph-name="Delta" unicode="&#x2206;" horiz-adv-x="681" 
d="M310 467l-151 -348q52 -7 157 -7q101 0 142 5zM611 0h-541q-44 0 -44 47q195 431 251 571q10 27 68 27q23 0 53 -5q29 -67 135 -312.5t122 -279.5q0 -48 -44 -48z" />
    <glyph glyph-name="product" unicode="&#x220f;" horiz-adv-x="745" 
d="M742 621q0 -55 -38 -55q-1 0 -107 4q0 -5 -2.5 -40.5t-4 -78.5t-1.5 -83v-165q0 -131 18 -193q-9 -4 -36 -8.5t-44 -4.5q-58 0 -76.5 16t-18.5 49q0 16 1 75t1 94v341h-18q-90 0 -121 -1v-340q0 -35 1 -95.5t1 -76.5q0 -32 -18.5 -47t-71.5 -15q-50 0 -74 12
q17 61 17 194v179q0 37 -1.5 77t-4 73t-2.5 38q-75 -3 -121 -13q-8 21 -8 53t13 43t44 11q20 0 95 -1t117 -1h190q154 0 267 6q3 -20 3 -47z" />
    <glyph glyph-name="summation" unicode="&#x2211;" horiz-adv-x="629" 
d="M49 663h508q29 -129 29 -159q0 -25 -36 -25q-8 0 -14 1q-28 78 -48 107h-279l114 -195q12 -21 12 -42q0 -18 -10 -35l-154 -260h334q16 28 41 97q6 1 14 1q36 0 36 -25q0 -13 -11 -87t-18 -103h-536q-6 0 -10 5t-5 11v5l211 345l-200 331q0 12 6 20t16 8z" />
    <glyph glyph-name="minus" unicode="&#x2212;" 
d="M505 260q0 -25 -14 -42.5t-37 -17.5q-17 0 -76.5 5.5t-89.5 5.5q-113 0 -216 -11q-4 21 -4 42q0 23 12.5 41.5t38.5 18.5q4 0 67.5 -5t109.5 -5q134 0 203 10q6 -12 6 -42z" />
    <glyph glyph-name="radical" unicode="&#x221a;" horiz-adv-x="566" 
d="M203 494l148 -319l106 560q20 3 34 3q47 0 47 -30q0 -6 -137 -700q-6 -28 -23 -34t-62 -6h-9l-200 431q-18 -7 -67 -35q-7 3 -14 13t-7 18q0 14 11 22q22 17 72 40t101 37z" />
    <glyph glyph-name="infinity" unicode="&#x221e;" horiz-adv-x="705" 
d="M609 264q0 37 -23 56.5t-58 19.5q-50 0 -116 -68l-8 -8q69 -79 123 -79q37 0 59.5 21.5t22.5 57.5zM178 185q55 0 125 70q-9 13 -24.5 29t-47 36t-59.5 20q-34 0 -55 -23.5t-21 -59.5q0 -31 23.5 -51.5t58.5 -20.5zM174 421q51 0 92.5 -27.5t87.5 -78.5q35 35 55 52.5
t56 35.5t72 18q69 0 114.5 -45.5t45.5 -113.5q0 -74 -50.5 -117.5t-119.5 -43.5q-43 0 -83.5 24t-92.5 78q-45 -46 -88 -73.5t-93 -27.5q-69 0 -116 45.5t-47 112.5q0 69 48 115t119 46z" />
    <glyph glyph-name="integral" unicode="&#x222b;" horiz-adv-x="446" 
d="M141 416q0 152 67.5 237.5t167.5 85.5q44 0 67 -16.5t23 -41.5q0 -23 -19 -42.5t-50 -24.5q-10 19 -26 34.5t-32 15.5q-44 0 -44 -130q0 -64 4 -196.5t4 -183.5q0 -86 -20 -151.5t-54 -103t-74.5 -56t-85.5 -18.5q-44 0 -66.5 17t-22.5 42t20.5 46t53.5 26
q11 -35 22 -45.5t30 -10.5q51 0 51 145q0 59 -8 183t-8 188z" />
    <glyph glyph-name="approxequal" unicode="&#x2248;" 
d="M571 137q0 -31 -42 -77t-94 -46q-38 0 -80 17t-73 38t-67 38t-62 17q-25 0 -48 -20t-50 -64q-52 22 -52 54q0 43 46.5 81.5t93.5 38.5q40 0 84.5 -17.5t75.5 -38.5t64 -38.5t54 -17.5q25 0 47 21t48 70q55 -16 55 -56zM571 367q0 -31 -42 -77t-94 -46q-38 0 -80 17
t-73 38t-67 38t-62 17q-25 0 -48 -20t-50 -64q-52 22 -52 54q0 43 46.5 81.5t93.5 38.5q40 0 84.5 -17.5t75.5 -38.5t64 -38.5t54 -17.5q25 0 47 21t48 70q55 -16 55 -56z" />
    <glyph glyph-name="notequal" unicode="&#x2260;" 
d="M507 361q0 -25 -14 -42.5t-37 -17.5q-16 0 -58.5 4t-57.5 5l-62 -113h19q136 0 205 10q5 -20 5 -42q0 -25 -14 -42.5t-37 -17.5q-17 0 -78 5.5t-91 5.5q-38 0 -55 -1l-57 -103q-22 -40 -28 -57q-46 5 -46 31q0 10 25 55l40 72q-45 -2 -95 -8q-4 21 -4 42q0 23 12.5 41.5
t38.5 18.5q6 0 19.5 -1t35.5 -3t41 -3l62 112q-116 -1 -205 -11q-4 21 -4 42q0 23 12.5 41.5t38.5 18.5q4 0 68 -5t111 -5h24l61 109q10 18 28 57q46 -5 46 -31q0 -11 -22 -50l-47 -84q85 4 115 9q5 -20 5 -42z" />
    <glyph glyph-name="lessequal" unicode="&#x2264;" 
d="M228 317l204 -134q-11 -21 -30.5 -35t-39.5 -14q-19 0 -36 16l-207 167l206 176q19 16 36 16q21 0 41 -15t29 -34zM454 57q0 -25 -14 -42.5t-37 -17.5q-13 0 -57.5 5.5t-67.5 5.5q-85 0 -162 -11q-4 21 -4 42q0 23 12.5 41.5t38.5 18.5q3 0 51 -5t82 -5q102 0 153 10
q5 -12 5 -42z" />
    <glyph glyph-name="greaterequal" unicode="&#x2265;" 
d="M142 184l204 134l-203 143q9 19 29 34t41 15q17 0 36 -16l206 -176l-207 -167q-17 -16 -36 -16q-20 0 -39.5 14t-30.5 35zM120 57q0 30 5 42q51 -10 153 -10q34 0 82 5t51 5q26 0 38.5 -18.5t12.5 -41.5q0 -21 -4 -42q-77 11 -162 11q-23 0 -67.5 -5.5t-57.5 -5.5
q-23 0 -37 17.5t-14 42.5z" />
    <glyph glyph-name="lozenge" unicode="&#x25ca;" horiz-adv-x="488" 
d="M375 343l-131 246l-130 -246l130 -246zM14 343l174 322q11 21 56 21q44 0 56 -21l174 -322l-176 -325q-10 -18 -54 -18t-56 22z" />
    <glyph glyph-name="dollaroldstyle" unicode="&#xf724;" 
d="M406 427q-25 52 -87 61v-142q29 -9 38 -12t35.5 -13t37.5 -17t29.5 -21.5t26.5 -29t15 -36.5t7 -47q0 -79 -51 -124t-134 -54q1 -22 5 -59l-22 -3q-39 0 -43 39v22q-28 1 -57.5 5t-64 12.5t-56 25.5t-21.5 40q0 46 82 74q16 -34 48 -52t69 -20v151q-35 11 -53.5 17.5
t-49 22.5t-46.5 34.5t-28.5 49t-12.5 69.5q0 71 54 110.5t135 48.5q-1 28 -5 68q12 6 25 6q37 0 37 -39v-33q74 -2 126 -23.5t52 -57.5q0 -59 -91 -73zM369 152q0 33 -48 54v-120q48 21 48 66zM215 427q0 -37 48 -60v117q-48 -17 -48 -57z" />
    <glyph glyph-name="ampersandsmall" unicode="&#xf726;" horiz-adv-x="494" 
d="M343 569q-34 0 -58 24t-24 61q0 35 25 59.5t59 24.5q33 0 57 -24t24 -60t-25.5 -60.5t-57.5 -24.5zM133 569q-34 0 -58 24t-24 61q0 35 25 59.5t59 24.5q33 0 57 -24t24 -60t-25.5 -60.5t-57.5 -24.5zM128 314q-88 16 -88 75q0 40 57.5 68t138.5 28q105 0 155 -40
t50 -133q0 -8 -1 -59t-1 -76q0 -115 19 -172q-44 -12 -78 -12q-72 0 -84 58q-24 -28 -61.5 -44.5t-75.5 -16.5q-55 0 -92.5 35.5t-37.5 105.5q0 56 22.5 82t61.5 39q76 24 180 30q0 61 -13.5 85.5t-56.5 24.5q-25 0 -53.5 -21t-41.5 -57zM292 210q-30 -5 -46 -9t-34.5 -12.5
t-26 -22t-7.5 -33.5q0 -25 12 -37.5t30 -12.5q42 0 70 25q-1 9 -1 30q0 36 3 72z" />
    <glyph glyph-name="zerooldstyle" unicode="&#xf730;" horiz-adv-x="539" 
d="M269 -10q-110 0 -175 67t-65 180q0 115 65 182t175 67t175.5 -67t65.5 -182q0 -113 -65.5 -180t-175.5 -67zM394 230q0 46 -29.5 82.5t-95.5 36.5q-60 0 -92 -30t-32 -70q0 -49 29.5 -86t93.5 -37q62 0 94 30.5t32 73.5z" />
    <glyph glyph-name="oneoldstyle" unicode="&#xf731;" horiz-adv-x="396" 
d="M293 94q33 0 79 4q9 -18 9 -42q0 -27 -12.5 -42.5t-34.5 -15.5q-9 0 -64.5 1t-113.5 1q-71 0 -113 -1q-10 26 -10 46q0 52 66 52h40q0 10 1 66t1 97q0 47 -2 123q-82 -10 -106 -14q-4 20 -4 37q0 55 50 64q83 15 152 15q31 0 47 -10.5t16 -41.5q0 -6 -2 -34.5t-4 -74
t-2 -91.5v-36q0 -69 7 -103z" />
    <glyph glyph-name="twooldstyle" unicode="&#xf732;" horiz-adv-x="494" 
d="M215 104q98 0 184 7q48 3 76 11q12 -26 12 -54q0 -64 -70 -67q-62 -3 -197 -3q-66 0 -158 2q-48 0 -48 72q0 17 1 25q125 48 194 117t69 124q0 25 -20 43t-48 18q-62 0 -102 -82q-34 4 -51.5 20.5t-17.5 40.5q0 35 63 71t141 36q93 0 139.5 -36t46.5 -94q0 -67 -57 -137
t-157 -114z" />
    <glyph glyph-name="threeoldstyle" unicode="&#xf733;" horiz-adv-x="460" 
d="M88 227q83 0 124 30.5t41 73.5q0 29 -16.5 44t-42.5 15q-34 0 -64.5 -21t-44.5 -59q-38 5 -57.5 24.5t-19.5 47.5q0 35 61 69t139 34q91 0 142.5 -44t51.5 -104q0 -40 -29 -77t-77 -58q55 -17 89.5 -61.5t34.5 -97.5q0 -89 -77.5 -145.5t-211.5 -56.5q-124 0 -124 61
q0 22 16.5 42.5t39.5 29.5q30 -35 94 -35q46 0 79.5 23t33.5 67q0 49 -37.5 80t-101.5 31q-46 0 -46 55q0 15 3 32z" />
    <glyph glyph-name="fouroldstyle" unicode="&#xf734;" horiz-adv-x="549" 
d="M141 134q33 -3 68 -3q27 0 73 2v195q-65 -67 -141 -194zM272 465q22 19 99 19q43 0 64 -6q-9 -114 -9 -281v-60q73 6 97 17q11 -33 11 -56q0 -43 -20 -52q-25 -12 -87 -13q0 -94 24 -179q-42 -13 -81 -13q-52 0 -71 15t-19 46q0 32 2 130q-205 0 -260 10q-22 4 -22 58
q0 11 2 25q43 69 135 186.5t135 153.5z" />
    <glyph glyph-name="fiveoldstyle" unicode="&#xf735;" horiz-adv-x="471" 
d="M331 365q-47 0 -145 7l-11 -113q30 5 75 5q90 0 141 -53t51 -151q0 -97 -73.5 -158t-197.5 -61q-76 0 -115.5 22t-39.5 48q0 21 18.5 40.5t46.5 26.5q29 -42 91 -42q55 0 87.5 34.5t32.5 81.5q0 49 -37 85.5t-105 36.5q-40 0 -100 -7q-10 15 -10 64q0 24 13 246
q34 -2 232 -2q95 0 126 8q15 -23 15 -52q0 -66 -95 -66z" />
    <glyph glyph-name="sixoldstyle" unicode="&#xf736;" horiz-adv-x="506" 
d="M252 -10q-115 0 -169 69t-54 177q0 70 23 139.5t65 127.5t109 94.5t147 36.5q69 0 69 -56q0 -15 -6 -47q-23 7 -67 7q-55 0 -94 -25.5t-58.5 -70t-28 -90.5t-8.5 -100q0 -166 79 -166q33 0 52.5 38.5t19.5 89.5q0 113 -71 113q-7 0 -11 -1q-9 26 -9 43q0 21 20 33.5
t51 12.5q69 0 117.5 -43t48.5 -128q0 -109 -58.5 -181.5t-166.5 -72.5z" />
    <glyph glyph-name="sevenoldstyle" unicode="&#xf737;" horiz-adv-x="467" 
d="M307 371q-155 -5 -255 -5q-77 0 -77 72q0 27 12 46q58 -8 134 -8q269 0 331 2q10 -15 10 -37q0 -21 -6 -39q-18 -56 -97 -219t-139 -273q-22 -39 -40 -54t-42 -15q-29 0 -60 16.5t-49 44.5q78 76 155.5 215.5t122.5 253.5z" />
    <glyph glyph-name="eightoldstyle" unicode="&#xf738;" horiz-adv-x="514" 
d="M256 530q-56 0 -56 -43q0 -26 20.5 -54.5t50.5 -41.5q17 13 28.5 37t11.5 48t-13.5 39t-41.5 15zM256 86q36 0 57.5 22.5t21.5 55.5q0 76 -94 128q-29 -17 -46.5 -51.5t-17.5 -70.5q0 -37 19.5 -60.5t59.5 -23.5zM257 -10q-112 0 -172 50.5t-60 122.5q0 54 36 99.5
t107 73.5q-55 20 -86 61t-31 85q0 59 52.5 100.5t152.5 41.5q99 0 152.5 -41.5t53.5 -100.5q0 -88 -120 -135q75 -27 111 -77t36 -107q0 -72 -60 -122.5t-172 -50.5z" />
    <glyph glyph-name="nineoldstyle" unicode="&#xf739;" horiz-adv-x="506" 
d="M254 485q115 0 169 -69t54 -177q0 -70 -23 -139.5t-65 -127.5t-109 -94.5t-147 -36.5q-69 0 -69 56q0 15 6 47q23 -7 67 -7q55 0 94 25.5t58.5 70t28 90.5t8.5 100q0 166 -79 166q-33 0 -52.5 -38.5t-19.5 -89.5q0 -113 71 -113q1 0 5 0.5t6 0.5q9 -25 9 -43
q0 -21 -20 -33.5t-51 -12.5q-69 0 -117.5 43t-48.5 128q0 109 58.5 181.5t166.5 72.5z" />
    <glyph glyph-name="centoldstyle" unicode="&#xf7a2;" 
d="M429 320q-39 63 -89 69l1 -303q61 4 100 59q81 -23 81 -74q0 -40 -52 -60.5t-129 -20.5q0 -33 6 -87l-22 -3q-43 0 -43 40v54q-106 14 -168 76t-62 164q0 103 63.5 169t166.5 79q-1 19 -4 51.5t-3 36.5q25 5 26 5q39 0 39 -40v-50q37 -2 76.5 -12t72 -33.5t32.5 -54.5
q0 -23 -24.5 -40.5t-67.5 -24.5zM207 232q0 -107 75 -137v285q-35 -16 -55 -55t-20 -93z" />
    <glyph glyph-name="apple" unicode="&#xf8ff;" horiz-adv-x="816" 
d="M713 162q8 -30 11 -45q12 -55 12 -111q0 -7 -7 -7h-26q-6 0 -6 6q0 7 7 7h19q0 47 -18 125l-5 22q-4 20 -22 36t-47 19q-43 4 -98 22q-14 5 -15 7q-1 6 -2.5 26t-2.5 27q-27 0 -53 13q-3 1 -3 7t7 6q1 0 17.5 -6.5t40.5 -6.5q20 0 27 7q4 5 12.5 59.5t15.5 69.5
q4 13 4 65q0 46 -4 66q-18 97 -130 97q-84 0 -131 -42.5t-47 -118.5q0 -65 22.5 -109.5t61.5 -54.5q6 -2 6 -8t-3 -52.5t-4 -48.5q-2 -2 -4 -2q-26 0 -87 -23q-53 -21 -75 -24q-56 -8 -68 -54l-7 -29q-14 -60 -17 -95h142q7 0 7 -6q0 -7 -7 -7h-149q-7 0 -7 7q3 42 18 102
l8 30q4 24 25.5 43.5t53.5 23.5q22 3 81 25q52 19 75 20q4 56 5 86q-43 14 -66.5 60.5t-23.5 115.5q0 83 50 129.5t141 46.5q121 0 145 -109q3 -18 3 -52q0 -60 -5 -87q-13 -32 -18 -82q-5 -39 -16 -52q-8 -9 -30 -11q1 -9 2.5 -25.5t1.5 -19.5q61 -18 104 -23
q31 -3 52 -22.5t27 -42.5zM507 563l5 -5l-18 -28l-13 11zM515 558l5 5l26 -22l-13 -11zM517 574h-7l-5 31h17zM509 572l-3 -7l-31 7l6 15zM520 565l-2 7l28 15l6 -15z" />
    <glyph glyph-name="ff" unicode="&#xfb00;" horiz-adv-x="745" 
d="M410 663q0 -33 -35 -70q-25 26 -69 26q-45 0 -60.5 -26t-15.5 -82v-38h212v1q0 45 4.5 77.5t17.5 65t36 53t61.5 33t92.5 12.5q114 0 114 -52q0 -33 -35 -70q-25 26 -69 26q-45 0 -60.5 -26t-15.5 -82v-38q89 2 132 8q7 -14 7 -41q0 -33 -18.5 -45.5t-55.5 -13.5
q-47 -1 -65 -1v-193q0 -123 18 -182q-34 -8 -73 -8q-53 0 -73 12t-20 40q0 11 1 125t1 205v1h-212v-193q0 -123 18 -182q-34 -8 -73 -8q-53 0 -73 12t-20 40q0 11 1 125t1 205q-19 0 -73 -6q-8 21 -8 45q0 56 81 56q0 45 4.5 77.5t17.5 65t36 53t61.5 33t92.5 12.5
q114 0 114 -52z" />
    <glyph glyph-name="fi" unicode="&#xfb01;" horiz-adv-x="604" 
d="M478 478q38 0 59 -13t21 -51q0 -6 -3.5 -88t-3.5 -123q0 -142 17 -193q-42 -13 -83 -13q-47 0 -65.5 16.5t-18.5 48.5q0 16 1.5 75t1.5 94q0 80 -3 149h-171v-193q0 -123 18 -182q-34 -8 -73 -8q-53 0 -73 12t-20 40q0 11 1 125t1 205q-19 0 -73 -6q-8 21 -8 45
q0 56 81 56q2 123 76 183.5t207 60.5q73 0 122.5 -21.5t49.5 -62.5q0 -38 -30 -55.5t-99 -18.5q-12 30 -29.5 45t-49.5 15q-42 0 -71.5 -26.5t-29.5 -82.5v-38h196q27 5 52 5z" />
    <glyph glyph-name="fl" unicode="&#xfb02;" horiz-adv-x="668" 
d="M539 743q38 0 59 -13t21 -51q0 -6 -3.5 -88t-3.5 -123v-274q0 -132 17 -184q-42 -13 -83 -13q-47 0 -65.5 16.5t-18.5 48.5q0 16 1.5 70t1.5 88v276q0 143 -7 234q38 13 81 13zM410 663q0 -33 -35 -70q-25 26 -69 26q-45 0 -60.5 -26t-15.5 -82v-38q89 2 132 8
q7 -14 7 -41q0 -33 -18.5 -45.5t-55.5 -13.5q-47 -1 -65 -1v-193q0 -123 18 -182q-34 -8 -73 -8q-53 0 -73 12t-20 40q0 11 1 125t1 205q-19 0 -73 -6q-8 21 -8 45q0 56 81 56q0 45 4.5 77.5t17.5 65t36 53t61.5 33t92.5 12.5q114 0 114 -52z" />
    <glyph glyph-name="ffi" unicode="&#xfb03;" horiz-adv-x="962" 
d="M836 478q38 0 59 -13t21 -51q0 -6 -3.5 -88t-3.5 -123q0 -142 17 -193q-42 -13 -83 -13q-47 0 -65.5 16.5t-18.5 48.5q0 16 1.5 75t1.5 94q0 80 -3 149h-171v-193q0 -123 18 -182q-34 -8 -73 -8q-53 0 -73 12t-20 40q0 11 1 125t1 205v1h-212v-193q0 -123 18 -182
q-34 -8 -73 -8q-53 0 -73 12t-20 40q0 11 1 125t1 205q-19 0 -73 -6q-8 21 -8 45q0 56 81 56q0 45 4.5 77.5t17.5 65t36 53t61.5 33t92.5 12.5q114 0 114 -52q0 -33 -35 -70q-25 26 -69 26q-45 0 -60.5 -26t-15.5 -82v-38h212v1q0 122 75 183t208 61q73 0 122.5 -21.5
t49.5 -62.5q0 -38 -30 -55.5t-99 -18.5q-12 30 -29.5 45t-49.5 15q-42 0 -71.5 -26.5t-29.5 -82.5v-38h196q28 5 52 5z" />
    <glyph glyph-name="ffl" unicode="&#xfb04;" horiz-adv-x="1026" 
d="M410 663q0 -33 -35 -70q-25 26 -69 26q-45 0 -60.5 -26t-15.5 -82v-38h212v1q0 45 4.5 77.5t17.5 65t36 53t61.5 33t92.5 12.5q114 0 114 -52q0 -33 -35 -70q-25 26 -69 26q-45 0 -60.5 -26t-15.5 -82v-38q89 2 132 8q7 -14 7 -41q0 -33 -18.5 -45.5t-55.5 -13.5
q-47 -1 -65 -1v-193q0 -123 18 -182q-34 -8 -73 -8q-53 0 -73 12t-20 40q0 11 1 125t1 205v1h-212v-193q0 -123 18 -182q-34 -8 -73 -8q-53 0 -73 12t-20 40q0 11 1 125t1 205q-19 0 -73 -6q-8 21 -8 45q0 56 81 56q0 45 4.5 77.5t17.5 65t36 53t61.5 33t92.5 12.5
q114 0 114 -52zM897 743q38 0 59 -13t21 -51q0 -6 -3.5 -88t-3.5 -123v-274q0 -132 17 -184q-42 -13 -83 -13q-47 0 -65.5 16.5t-18.5 48.5q0 16 1.5 70t1.5 88v276q0 143 -7 234q38 13 81 13z" />
    <glyph glyph-name="st" unicode="&#xfb06;" horiz-adv-x="878" 
d="M308 324q-8 31 -28 48t-44 17q-23 0 -39 -12t-16 -35q0 -24 23.5 -38t57 -22.5t67 -21t57 -41.5t23.5 -74q0 -76 -60.5 -115.5t-142.5 -39.5q-26 0 -51 2.5t-57.5 10t-52 26t-19.5 45.5q0 54 81 84q10 -36 38 -54t59 -18q67 0 67 48q0 23 -35.5 37.5t-77.5 24t-77.5 43
t-35.5 89.5q0 71 60.5 114t136.5 43q46 0 88 -13q-7 22 -7 45q0 67 56 104.5t133 37.5q69 0 128 -33t59 -97q0 -9 -1.5 -29.5t-1.5 -25.5q104 0 165 8q7 -14 7 -43q0 -53 -59 -56q-38 -2 -115 -2q-3 -99 -3 -198q0 -24 1 -36.5t5.5 -30.5t16 -26t29.5 -8q50 0 80 30
q41 -29 41 -59q0 -28 -34.5 -45.5t-82.5 -17.5q-109 0 -154.5 48t-45.5 143v200q-52 -1 -89 -7q-8 22 -8 42q0 59 81 59h14l-2 60q-1 31 -14.5 44t-45.5 13q-40 0 -70 -33.5t-30 -76.5q0 -27 17 -59h-1q7 -14 7 -27q0 -27 -24.5 -46.5t-73.5 -25.5z" />
    </font>
</defs>
</svg>
