<?xml version="1.0" encoding="UTF-8"?>
<svg id="Capa_1" xmlns="http://www.w3.org/2000/svg" version="1.1" viewBox="0 0 1080 1080">
  <!-- Generator: Adobe Illustrator 29.8.1, SVG Export Plug-In . SVG Version: 2.1.1 Build 2)  -->
  <defs>
    <style>
      .st0 {
        fill: #d0d0d0;
        stroke-width: 4px;
      }

      .st0, .st1 {
        stroke: #231f20;
      }

      .st1 {
        stroke-width: 2px;
      }

      .st1, .st2 {
        fill: #fff;
      }

      .st3 {
        fill: #231f20;
      }

      .st4 {
        fill: #f5a909;
      }

      .st5 {
        fill: #ea8e10;
      }

      .st6 {
        stroke: #13110c;
      }

      .st6, .st7 {
        stroke-width: 6px;
      }

      .st6, .st8 {
        fill: none;
      }

      .st7 {
        fill: #12100b;
      }

      .st7, .st8 {
        stroke: #4d4947;
      }

      .st8 {
        stroke-width: 5px;
      }

      .st9 {
        fill: #e30613;
        stroke: #dd1215;
        stroke-width: .23px;
      }
    </style>
  </defs>
  <g>
    <g>
      <path class="st5" d="M763.55,71.31c-61.76-10.08-141.69-16.16-229.08-16.16-80.67,0-154.95,5.18-214.47,13.9v121.86h-165.94v468.18h775.42V193.17h-165.92v-121.86h0Z"/>
      <path class="st3" d="M763.55,228.17V71.81c84.86,15.96,139.81,41.08,139.81,69.44,14.4,0,26.11,13.05,26.11,29.17v57.75h-165.92Z"/>
      <path class="st3" d="M319.98,225.67V69.3c-84.86,15.96-139.81,41.09-139.81,69.45-14.4,0-26.13,13.04-26.13,29.16v57.75h165.94Z"/>
    </g>
    <path class="st4" d="M972.65,655c-19.6-21.23-59.28-22.68-88.82-40.75-118.55-72.62-200.71-95.66-339.42-95.66-.87,0-1.77,0-2.64.02-.87,0-1.79-.02-2.64-.02-138.71,0-220.86,23.04-339.42,95.66-29.54,18.08-69.23,19.53-88.83,40.75-55.88,60.56-20.38,190.93-20.38,190.93,0,3.5,2.57,6.27,5.76,6.27h890.99c3.19,0,5.77-2.78,5.77-6.27,0,0,35.52-130.37-20.37-190.93Z"/>
    <path class="st4" d="M648.97,58.86c0-14.38-43.15-46.89-107.81-46.89s-106.61,32.5-106.61,46.89"/>
    <path class="st3" d="M986.19,852.2H97.36c-3.38,0-6.08,4.17-6.08,9.36l16.33,42.71c0,5.42,2.61,9.89,5.81,9.89h62.19v131.36c0,4.29,2.9,7.79,6.47,7.79h182.07c3.56,0,6.46-3.49,6.46-7.79v-82.1h338.37v82.1c0,4.29,2.87,7.79,6.51,7.79h184.85c3.62,0,6.49-3.49,6.49-7.79v-131.36h63.23c3.24,0,5.87-4.47,5.87-9.89l16.32-42.71c0-5.18-2.75-9.36-6.06-9.36Z"/>
    <path class="st7" d="M738.76,768.94c0,19.61-14.67,35.51-32.77,35.51h-328.44c-18.1,0-32.77-15.9-32.77-35.51v-133.52c0-19.64,14.67-35.54,32.77-35.54h328.44c18.1,0,32.77,15.9,32.77,35.54v133.52h0Z"/>
    <path class="st0" d="M973.93,730.41c0,42.36-31.63,76.7-70.78,76.7s-70.74-34.34-70.74-76.7,31.72-76.69,70.74-76.69c39.15,0,70.78,34.34,70.78,76.69Z"/>
    <path class="st1" d="M946.98,730.41c0,26.23-19.59,47.47-43.81,47.47s-43.79-21.26-43.79-47.47,19.64-47.46,43.79-47.46,43.81,21.25,43.81,47.46Z"/>
    <path class="st0" d="M251.11,730.41c0,42.36-31.63,76.7-70.79,76.7s-70.74-34.34-70.74-76.7,31.73-76.69,70.74-76.69c39.15,0,70.79,34.34,70.79,76.69Z"/>
    <path class="st1" d="M224.14,730.41c0,26.23-19.58,47.47-43.81,47.47s-43.78-21.26-43.78-47.47,19.63-47.46,43.78-47.46,43.81,21.25,43.81,47.46Z"/>
    <line class="st8" x1="354.37" y1="683.73" x2="729.16" y2="683.73"/>
    <line class="st8" x1="354.37" y1="641.61" x2="729.16" y2="641.61"/>
    <line class="st8" x1="354.37" y1="725.86" x2="729.16" y2="725.86"/>
    <line class="st8" x1="354.37" y1="768" x2="729.16" y2="768"/>
    <g>
      <path class="st2" d="M519.94,448.97c0,3.46-2.57,6.28-5.77,6.28H186.11c-3.19,0-5.78-2.83-5.78-6.28v-173.06c0-3.46,2.6-6.28,5.78-6.28h328.06c3.2,0,5.77,2.83,5.77,6.28v173.06Z"/>
      <path class="st2" d="M903.17,448.97c0,3.46-2.58,6.28-5.76,6.28h-328.01c-3.21,0-5.86-2.83-5.86-6.28v-173.06c0-3.46,2.63-6.28,5.86-6.28h328.01c3.19,0,5.76,2.83,5.76,6.28v173.06Z"/>
    </g>
    <path class="st6" d="M845.12,455.69c0-45.38-45.25-78.33-85.77-78.33s-85.71,33.52-85.71,78.33"/>
    <g>
      <path class="st3" d="M115.07,422.65c0,3.43-2.55,6.25-5.74,6.25H31.34c-3.17,0-5.79-2.82-5.79-6.25v-120.86c0-3.46,2.62-6.25,5.79-6.25h77.99c3.19,0,5.74,2.79,5.74,6.25v120.86Z"/>
      <path class="st6" d="M70.32,428.9c0,28.97,37.09,52.37,82.98,52.37"/>
    </g>
    <g>
      <path class="st3" d="M968.22,422.65c0,3.43,2.62,6.25,5.76,6.25h77.99c3.14,0,5.76-2.82,5.76-6.25v-120.86c0-3.46-2.62-6.25-5.76-6.25h-77.99c-3.14,0-5.76,2.79-5.76,6.25v120.86Z"/>
      <path class="st6" d="M1013,428.9c0,28.97-37.09,52.37-82.96,52.37"/>
    </g>
    <path class="st9" d="M788.71,161.86c0,29.49,21.97,53.33,49.16,53.33s49.19-23.84,49.19-53.33-22.03-53.27-49.19-53.27-49.16,23.91-49.16,53.27Z"/>
    <path class="st9" d="M190.75,161.86c0,29.49,22.01,53.33,49.1,53.33s49.24-23.84,49.24-53.33-22.04-53.27-49.24-53.27-49.1,23.91-49.1,53.27Z"/>
  </g>
  <g>
    <path d="M329.77,108.83c4.42-.87,11.41-1.52,18.51-1.52,10.13,0,16.64,1.63,21.54,5.33,4.07,2.83,6.51,7.17,6.51,12.93,0,7.07-5,13.26-13.26,16.09v.22c7.44,1.74,16.16,7.5,16.16,18.37,0,6.3-2.67,11.09-6.63,14.67-5.47,4.68-14.31,6.85-27.12,6.85-6.98,0-12.34-.43-15.72-.87v-72.06h0ZM339.89,138.83h9.18c10.72,0,16.99-5.22,16.99-12.28,0-8.59-6.98-11.96-17.23-11.96-4.65,0-7.33.33-8.96.66v23.58h0ZM339.89,173.93c1.98.33,4.89.44,8.5.44,10.47,0,20.13-3.59,20.13-14.24,0-10-9.19-14.13-20.25-14.13h-8.38v27.94h0Z"/>
    <path d="M402.98,107.85v43.37c0,16.41,7.8,23.37,18.27,23.37,11.64,0,19.08-7.17,19.08-23.37v-43.37h10.24v42.72c0,22.5-12.68,31.74-29.67,31.74-16.06,0-28.16-8.59-28.16-31.3v-43.15h10.24Z"/>
    <path d="M466.76,169.58c4.54,2.61,11.17,4.79,18.15,4.79,10.36,0,16.41-5.11,16.41-12.5,0-6.85-4.19-10.76-14.79-14.56-12.8-4.24-20.71-10.44-20.71-20.76,0-11.42,10.13-19.89,25.37-19.89,8.03,0,13.85,1.74,17.34,3.59l-2.8,7.72c-2.56-1.31-7.81-3.48-14.9-3.48-10.71,0-14.79,5.98-14.79,10.98,0,6.85,4.77,10.22,15.59,14.13,13.26,4.78,20.01,10.76,20.01,21.52,0,11.31-8.96,21.09-27.46,21.09-7.57,0-15.83-2.07-20.01-4.68l2.58-7.94Z"/>
    <path d="M549.5,148.18v7.06h-28.74v-7.06h28.74Z"/>
    <path d="M561.85,108.83c4.42-.87,11.41-1.52,18.51-1.52,10.12,0,16.64,1.63,21.53,5.33,4.07,2.83,6.51,7.17,6.51,12.93,0,7.07-5,13.26-13.26,16.09v.22c7.44,1.74,16.17,7.5,16.17,18.37,0,6.3-2.67,11.09-6.63,14.67-5.47,4.68-14.32,6.85-27.12,6.85-6.99,0-12.34-.43-15.72-.87v-72.06h0ZM571.98,138.83h9.19c10.71,0,16.99-5.22,16.99-12.28,0-8.59-6.99-11.96-17.23-11.96-4.66,0-7.33.33-8.97.66v23.58h0ZM571.98,173.93c1.98.33,4.89.44,8.5.44,10.47,0,20.13-3.59,20.13-14.24,0-10-9.19-14.13-20.24-14.13h-8.39v27.94h0Z"/>
    <path d="M679.74,178.72c-3.72,1.74-11.17,3.48-20.71,3.48-22.12,0-38.76-13.05-38.76-37.07s16.64-38.48,40.96-38.48c9.78,0,15.95,1.95,18.63,3.26l-2.44,7.72c-3.84-1.74-9.31-3.04-15.83-3.04-18.39,0-30.61,10.98-30.61,30.22,0,17.93,11.05,29.45,30.14,29.45,6.17,0,12.45-1.2,16.52-3.04l2.1,7.5Z"/>
    <path d="M692.44,181.11v-73.26h11.06l25.14,37.06c5.82,8.59,10.35,16.31,14.08,23.8l.24-.11c-.93-9.78-1.16-18.69-1.16-30.11v-30.66h9.55v73.26h-10.24l-24.9-37.17c-5.48-8.15-10.71-16.52-14.66-24.46l-.35.11c.58,9.24.82,18.04.82,30.22v31.3h-9.56Z"/>
  </g>
</svg>